<?xml version="1.0" encoding="UTF-8" standalone="no"?><svg xmlns="http://www.w3.org/2000/svg" xmlns:xlink="http://www.w3.org/1999/xlink" contentScriptType="application/ecmascript" contentStyleType="text/css" height="474px" preserveAspectRatio="none" style="width:490px;height:474px;background:#FFFFFF;" version="1.1" viewBox="0 0 490 474" width="490px" zoomAndPan="magnify"><defs><filter height="300%" id="f1prpexx2venmm" width="300%" x="-1" y="-1"><feGaussianBlur result="blurOut" stdDeviation="2.0"/><feColorMatrix in="blurOut" result="blurOut2" type="matrix" values="0 0 0 0 0 0 0 0 0 0 0 0 0 0 0 0 0 0 .4 0"/><feOffset dx="4.0" dy="4.0" in="blurOut2" result="blurOut3"/><feBlend in="SourceGraphic" in2="blurOut3" mode="normal"/></filter></defs><g><!--MD5=[6a19bd897d81d73acaff816adc6a72ac]
class Jogador--><a href="java:Jogador" target="_top" title="java:Jogador" xlink:actuate="onRequest" xlink:href="java:Jogador" xlink:show="new" xlink:title="java:Jogador" xlink:type="simple"><rect codeLine="20" fill="#FEFECE" filter="url(#f1prpexx2venmm)" height="86.8652" id="Jogador" style="stroke:#A80036;stroke-width:1.5;" width="193" x="7" y="171"/><ellipse cx="76.75" cy="187" fill="#ADD1B2" rx="11" ry="11" style="stroke:#A80036;stroke-width:1.0;"/><path d="M79.2231,193.1431 Q78.6421,193.4419 78.0029,193.5913 Q77.3638,193.7407 76.6582,193.7407 Q74.1514,193.7407 72.8315,192.0889 Q71.5117,190.437 71.5117,187.3159 Q71.5117,184.1865 72.8315,182.5347 Q74.1514,180.8828 76.6582,180.8828 Q77.3638,180.8828 78.0112,181.0322 Q78.6587,181.1816 79.2231,181.4805 L79.2231,184.2031 Q78.5923,183.6221 77.9988,183.3523 Q77.4053,183.0825 76.7744,183.0825 Q75.4297,183.0825 74.7449,184.1492 Q74.0601,185.2158 74.0601,187.3159 Q74.0601,189.4077 74.7449,190.4744 Q75.4297,191.541 76.7744,191.541 Q77.4053,191.541 77.9988,191.2712 Q78.5923,191.0015 79.2231,190.4204 Z " fill="#000000"/><text fill="#000000" font-family="sans-serif" font-size="12" lengthAdjust="spacing" textLength="45" x="97.25" y="191.5352">Jogador</text><line style="stroke:#A80036;stroke-width:1.5;" x1="8" x2="199" y1="203" y2="203"/><rect fill="none" height="6" style="stroke:#C82930;stroke-width:1.0;" width="6" x="15" y="211"/><text fill="#000000" font-family="sans-serif" font-size="11" lengthAdjust="spacing" textLength="51" x="27" y="217.6348">char letra</text><line style="stroke:#A80036;stroke-width:1.5;" x1="8" x2="199" y1="223.9551" y2="223.9551"/><ellipse cx="18" cy="234.9551" fill="#84BE84" rx="3" ry="3" style="stroke:#038048;stroke-width:1.0;"/><text fill="#000000" font-family="sans-serif" font-size="11" lengthAdjust="spacing" textLength="110" x="27" y="238.5898">Jogador(Mapa mapa)</text><ellipse cx="18" cy="247.9102" fill="#84BE84" rx="3" ry="3" style="stroke:#038048;stroke-width:1.0;"/><text fill="#000000" font-family="sans-serif" font-size="11" lengthAdjust="spacing" textLength="167" x="27" y="251.5449">boolean jogar(Scanner teclado)</text></a><!--MD5=[3858b4c47ad31b7fe669860596063bee]
class Mapa--><a href="java:Mapa" target="_top" title="java:Mapa" xlink:actuate="onRequest" xlink:href="java:Mapa" xlink:show="new" xlink:title="java:Mapa" xlink:type="simple"><rect codeLine="36" fill="#FEFECE" filter="url(#f1prpexx2venmm)" height="125.7305" id="Mapa" style="stroke:#A80036;stroke-width:1.5;" width="246" x="147.5" y="335"/><ellipse cx="250.25" cy="351" fill="#ADD1B2" rx="11" ry="11" style="stroke:#A80036;stroke-width:1.0;"/><path d="M252.7231,357.1431 Q252.1421,357.4419 251.5029,357.5913 Q250.8638,357.7407 250.1582,357.7407 Q247.6514,357.7407 246.3315,356.0889 Q245.0117,354.437 245.0117,351.3159 Q245.0117,348.1865 246.3315,346.5347 Q247.6514,344.8828 250.1582,344.8828 Q250.8638,344.8828 251.5112,345.0322 Q252.1587,345.1816 252.7231,345.4805 L252.7231,348.2031 Q252.0923,347.6221 251.4988,347.3523 Q250.9053,347.0825 250.2744,347.0825 Q248.9297,347.0825 248.2449,348.1492 Q247.5601,349.2158 247.5601,351.3159 Q247.5601,353.4077 248.2449,354.4744 Q248.9297,355.541 250.2744,355.541 Q250.9053,355.541 251.4988,355.2712 Q252.0923,355.0015 252.7231,354.4204 Z " fill="#000000"/><text fill="#000000" font-family="sans-serif" font-size="12" lengthAdjust="spacing" textLength="32" x="270.75" y="355.5352">Mapa</text><line style="stroke:#A80036;stroke-width:1.5;" x1="148.5" x2="392.5" y1="367" y2="367"/><rect fill="none" height="6" style="stroke:#C82930;stroke-width:1.0;" width="6" x="155.5" y="375"/><text fill="#000000" font-family="sans-serif" font-size="11" lengthAdjust="spacing" textLength="72" x="167.5" y="381.6348">char[][] mapa</text><line style="stroke:#A80036;stroke-width:1.5;" x1="148.5" x2="392.5" y1="387.9551" y2="387.9551"/><ellipse cx="158.5" cy="398.9551" fill="#84BE84" rx="3" ry="3" style="stroke:#038048;stroke-width:1.0;"/><text fill="#000000" font-family="sans-serif" font-size="11" lengthAdjust="spacing" textLength="150" x="167.5" y="402.5898">int sortear(int inicio, int fim)</text><ellipse cx="158.5" cy="411.9102" fill="#84BE84" rx="3" ry="3" style="stroke:#038048;stroke-width:1.0;"/><text fill="#000000" font-family="sans-serif" font-size="11" lengthAdjust="spacing" textLength="68" x="167.5" y="415.5449">void limpar()</text><ellipse cx="158.5" cy="424.8652" fill="#84BE84" rx="3" ry="3" style="stroke:#038048;stroke-width:1.0;"/><text fill="#000000" font-family="sans-serif" font-size="11" lengthAdjust="spacing" textLength="137" x="167.5" y="428.5">void desenhar(int jogada)</text><ellipse cx="158.5" cy="437.8203" fill="#84BE84" rx="3" ry="3" style="stroke:#038048;stroke-width:1.0;"/><text fill="#000000" font-family="sans-serif" font-size="11" lengthAdjust="spacing" textLength="206" x="167.5" y="441.4551">boolean jogar(int l, int c, char jogador)</text><ellipse cx="158.5" cy="450.7754" fill="#84BE84" rx="3" ry="3" style="stroke:#038048;stroke-width:1.0;"/><text fill="#000000" font-family="sans-serif" font-size="11" lengthAdjust="spacing" textLength="220" x="167.5" y="454.4102">boolean verificarGanhador(char jogador)</text></a><!--MD5=[03201736083f0e7cf029416e6ad7cecb]
class JogoDaVelha--><a href="java:JogoDaVelha" target="_top" title="java:JogoDaVelha" xlink:actuate="onRequest" xlink:href="java:JogoDaVelha" xlink:show="new" xlink:title="java:JogoDaVelha" xlink:type="simple"><rect codeLine="9" fill="#FEFECE" filter="url(#f1prpexx2venmm)" height="86.8652" id="JogoDaVelha" style="stroke:#A80036;stroke-width:1.5;" width="173" x="184" y="7"/><ellipse cx="229.75" cy="23" fill="#ADD1B2" rx="11" ry="11" style="stroke:#A80036;stroke-width:1.0;"/><path d="M232.2231,29.1431 Q231.6421,29.4419 231.0029,29.5913 Q230.3638,29.7407 229.6582,29.7407 Q227.1514,29.7407 225.8315,28.0889 Q224.5117,26.437 224.5117,23.3159 Q224.5117,20.1865 225.8315,18.5347 Q227.1514,16.8828 229.6582,16.8828 Q230.3638,16.8828 231.0112,17.0322 Q231.6587,17.1816 232.2231,17.4805 L232.2231,20.2031 Q231.5923,19.6221 230.9988,19.3523 Q230.4053,19.0825 229.7744,19.0825 Q228.4297,19.0825 227.7449,20.1492 Q227.0601,21.2158 227.0601,23.3159 Q227.0601,25.4077 227.7449,26.4744 Q228.4297,27.541 229.7744,27.541 Q230.4053,27.541 230.9988,27.2712 Q231.5923,27.0015 232.2231,26.4204 Z " fill="#000000"/><text fill="#000000" font-family="sans-serif" font-size="12" lengthAdjust="spacing" textLength="73" x="250.25" y="27.5352">JogoDaVelha</text><line style="stroke:#A80036;stroke-width:1.5;" x1="185" x2="356" y1="39" y2="39"/><line style="stroke:#A80036;stroke-width:1.5;" x1="185" x2="356" y1="47" y2="47"/><rect fill="#F24D5C" height="6" style="stroke:#C82930;stroke-width:1.0;" width="6" x="192" y="55"/><text fill="#000000" font-family="sans-serif" font-size="11" lengthAdjust="spacing" textLength="75" x="204" y="61.6348">JogoDaVelha()</text><rect fill="#F24D5C" height="6" style="stroke:#C82930;stroke-width:1.0;" width="6" x="192" y="67.9551"/><text fill="#000000" font-family="sans-serif" font-size="11" lengthAdjust="spacing" textLength="147" x="204" y="74.5898">void jogar(Scanner teclado)</text><ellipse cx="195" cy="83.9102" fill="#84BE84" rx="3" ry="3" style="stroke:#038048;stroke-width:1.0;"/><text fill="#000000" font-family="sans-serif" font-size="11" lengthAdjust="spacing" text-decoration="underline" textLength="127" x="204" y="87.5449">void main(String[] args)</text></a><!--MD5=[218f71f443b9e0720bb96dd9df1d4749]
class PC--><a href="java:PC" target="_top" title="java:PC" xlink:actuate="onRequest" xlink:href="java:PC" xlink:show="new" xlink:title="java:PC" xlink:type="simple"><rect codeLine="31" fill="#FEFECE" filter="url(#f1prpexx2venmm)" height="86.8652" id="PC" style="stroke:#A80036;stroke-width:1.5;" width="108" x="368.5" y="171"/><ellipse cx="410.95" cy="187" fill="#ADD1B2" rx="11" ry="11" style="stroke:#A80036;stroke-width:1.0;"/><path d="M413.4231,193.1431 Q412.8421,193.4419 412.2029,193.5913 Q411.5638,193.7407 410.8582,193.7407 Q408.3514,193.7407 407.0315,192.0889 Q405.7117,190.437 405.7117,187.3159 Q405.7117,184.1865 407.0315,182.5347 Q408.3514,180.8828 410.8582,180.8828 Q411.5638,180.8828 412.2112,181.0322 Q412.8587,181.1816 413.4231,181.4805 L413.4231,184.2031 Q412.7923,183.6221 412.1988,183.3523 Q411.6053,183.0825 410.9744,183.0825 Q409.6297,183.0825 408.9449,184.1492 Q408.2601,185.2158 408.2601,187.3159 Q408.2601,189.4077 408.9449,190.4744 Q409.6297,191.541 410.9744,191.541 Q411.6053,191.541 412.1988,191.2712 Q412.7923,191.0015 413.4231,190.4204 Z " fill="#000000"/><text fill="#000000" font-family="sans-serif" font-size="12" lengthAdjust="spacing" textLength="15" x="431.05" y="191.5352">PC</text><line style="stroke:#A80036;stroke-width:1.5;" x1="369.5" x2="475.5" y1="203" y2="203"/><rect fill="none" height="6" style="stroke:#C82930;stroke-width:1.0;" width="6" x="376.5" y="211"/><text fill="#000000" font-family="sans-serif" font-size="11" lengthAdjust="spacing" textLength="51" x="388.5" y="217.6348">char letra</text><line style="stroke:#A80036;stroke-width:1.5;" x1="369.5" x2="475.5" y1="223.9551" y2="223.9551"/><ellipse cx="379.5" cy="234.9551" fill="#84BE84" rx="3" ry="3" style="stroke:#038048;stroke-width:1.0;"/><text fill="#000000" font-family="sans-serif" font-size="11" lengthAdjust="spacing" textLength="82" x="388.5" y="238.5898">PC(Mapa mapa)</text><ellipse cx="379.5" cy="247.9102" fill="#84BE84" rx="3" ry="3" style="stroke:#038048;stroke-width:1.0;"/><text fill="#000000" font-family="sans-serif" font-size="11" lengthAdjust="spacing" textLength="82" x="388.5" y="251.5449">boolean jogar()</text></a><!--MD5=[6e96bf69a50be5dcefbde59b88781643]
link Jogador to Mapa--><path codeLine="8" d="M143.5007,258.4528 C163.2852,280.1921 187.59,306.8983 209.6221,331.1073 " fill="none" id="Jogador-to-Mapa" style="stroke:#A80036;stroke-width:1.0;"/><polygon fill="#A80036" points="213.1376,334.9701,210.0381,325.6217,209.7722,331.2723,204.1216,331.0063,213.1376,334.9701" style="stroke:#A80036;stroke-width:1.0;"/><text fill="#000000" font-family="sans-serif" font-size="13" lengthAdjust="spacing" textLength="34" x="183.5" y="301.5684">mapa</text><text fill="#000000" font-family="sans-serif" font-size="13" lengthAdjust="spacing" textLength="8" x="198.0426" y="324.417">1</text><!--MD5=[a9670325ef0cb1761c074b6b2483fee5]
link JogoDaVelha to Mapa--><path codeLine="16" d="M270.5,94.1593 C270.5,153.3198 270.5,259.5625 270.5,329.4281 " fill="none" id="JogoDaVelha-to-Mapa" style="stroke:#A80036;stroke-width:1.0;"/><polygon fill="#A80036" points="270.5,334.813,274.5,325.813,270.5,329.813,266.5,325.813,270.5,334.813" style="stroke:#A80036;stroke-width:1.0;"/><text fill="#000000" font-family="sans-serif" font-size="13" lengthAdjust="spacing" textLength="61" x="271.5" y="219.5684">jogoMapa</text><text fill="#000000" font-family="sans-serif" font-size="13" lengthAdjust="spacing" textLength="8" x="262.0375" y="324.2417">1</text><!--MD5=[e33c5618ec8dc45c1b73220d42c83d0f]
link JogoDaVelha to PC--><path codeLine="19" d="M310.8341,94.0184 C331.6194,116.4446 357.0075,143.837 378.3209,166.8331 " fill="none" id="JogoDaVelha-to-PC" style="stroke:#A80036;stroke-width:1.0;"/><polygon fill="#A80036" points="381.9774,170.7782,378.7932,161.4583,378.5786,167.1111,372.9258,166.8964,381.9774,170.7782" style="stroke:#A80036;stroke-width:1.0;"/><text fill="#000000" font-family="sans-serif" font-size="13" lengthAdjust="spacing" textLength="44" x="352.5" y="137.5684">jogoPC</text><text fill="#000000" font-family="sans-serif" font-size="13" lengthAdjust="spacing" textLength="8" x="366.8816" y="160.2186">1</text><!--MD5=[15b6435daa22d99350126462507f8475]
link JogoDaVelha to Jogador--><path codeLine="22" d="M201.4817,94.1395 C189.2158,103.2943 177.0153,113.4098 166.5,124 C154.0314,136.5574 142.3532,151.8458 132.5203,166.2557 " fill="none" id="JogoDaVelha-to-Jogador" style="stroke:#A80036;stroke-width:1.0;"/><polygon fill="#A80036" points="129.5291,170.6956,137.8751,165.4665,132.3228,166.5489,131.2404,160.9966,129.5291,170.6956" style="stroke:#A80036;stroke-width:1.0;"/><text fill="#000000" font-family="sans-serif" font-size="13" lengthAdjust="spacing" textLength="76" x="167.5" y="137.5684">jogoJogador</text><text fill="#000000" font-family="sans-serif" font-size="13" lengthAdjust="spacing" textLength="8" x="125.04" y="160.1228">1</text><!--MD5=[0b5a114c9923a76b6dccdc9da3eec23e]
link PC to Mapa--><path codeLine="38" d="M386.0922,258.4528 C368.0848,280.1921 345.963,306.8983 325.9098,331.1073 " fill="none" id="PC-to-Mapa" style="stroke:#A80036;stroke-width:1.0;"/><polygon fill="#A80036" points="322.7101,334.9701,331.5318,330.5909,325.8997,331.1196,325.3711,325.4875,322.7101,334.9701" style="stroke:#A80036;stroke-width:1.0;"/><text fill="#000000" font-family="sans-serif" font-size="13" lengthAdjust="spacing" textLength="34" x="361.5" y="301.5684">mapa</text><text fill="#000000" font-family="sans-serif" font-size="13" lengthAdjust="spacing" textLength="8" x="320.2844" y="324.417">1</text><!--MD5=[57db78d21abacabae87636168231814d]
@startuml
class Jogador [[java:Jogador]] {
	-char letra
	+Jogador(Mapa mapa)
	+boolean jogar(Scanner teclado)
}
class Mapa [[java:Mapa]] {
}
Jogador - -> "1" Mapa : mapa
class JogoDaVelha [[java:JogoDaVelha]] {
	-JogoDaVelha()
	-void jogar(Scanner teclado)
	+{static}void main(String[] args)
}
class Mapa [[java:Mapa]] {
}
JogoDaVelha - -> "1" Mapa : jogoMapa
class PC [[java:PC]] {
}
JogoDaVelha - -> "1" PC : jogoPC
class Jogador [[java:Jogador]] {
}
JogoDaVelha - -> "1" Jogador : jogoJogador
class Mapa [[java:Mapa]] {
	-char[][] mapa
	+int sortear(int inicio, int fim)
	+void limpar()
	+void desenhar(int jogada)
	+boolean jogar(int l, int c, char jogador)
	+boolean verificarGanhador(char jogador)
}
class PC [[java:PC]] {
	-char letra
	+PC(Mapa mapa)
	+boolean jogar()
}
class Mapa [[java:Mapa]] {
}
PC - -> "1" Mapa : mapa
@enduml

PlantUML version 1.2021.7(Sun May 23 09:40:07 BRT 2021)
(GPL source distribution)
Java Runtime: OpenJDK Runtime Environment
JVM: OpenJDK 64-Bit Server VM
Default Encoding: UTF-8
Language: en
Country: BR
--></g></svg>