<?xml version="1.0" encoding="UTF-8" standalone="no"?><svg xmlns="http://www.w3.org/2000/svg" xmlns:xlink="http://www.w3.org/1999/xlink" contentScriptType="application/ecmascript" contentStyleType="text/css" height="471px" preserveAspectRatio="none" style="width:1131px;height:471px;background:#FFFFFF;" version="1.1" viewBox="0 0 1131 471" width="1131px" zoomAndPan="magnify"><defs><filter height="300%" id="f13igoophm5ygj" width="300%" x="-1" y="-1"><feGaussianBlur result="blurOut" stdDeviation="2.0"/><feColorMatrix in="blurOut" result="blurOut2" type="matrix" values="0 0 0 0 0 0 0 0 0 0 0 0 0 0 0 0 0 0 .4 0"/><feOffset dx="4.0" dy="4.0" in="blurOut2" result="blurOut3"/><feBlend in="SourceGraphic" in2="blurOut3" mode="normal"/></filter></defs><g><!--MD5=[c8e62b5fbe112d7e1804ec544af552ae]
class NaveAlienigena--><a href="java:NaveAlienigena" target="_top" title="java:NaveAlienigena" xlink:actuate="onRequest" xlink:href="java:NaveAlienigena" xlink:show="new" xlink:title="java:NaveAlienigena" xlink:type="simple"><rect codeLine="1" fill="#FEFECE" filter="url(#f13igoophm5ygj)" height="112.7754" id="NaveAlienigena" style="stroke:#A80036;stroke-width:1.5;" width="157" x="9" y="129"/><ellipse cx="40.65" cy="145" fill="#ADD1B2" rx="11" ry="11" style="stroke:#A80036;stroke-width:1.0;"/><path d="M43.1231,151.1431 Q42.5421,151.4419 41.9029,151.5913 Q41.2638,151.7407 40.5582,151.7407 Q38.0514,151.7407 36.7315,150.0889 Q35.4117,148.437 35.4117,145.3159 Q35.4117,142.1865 36.7315,140.5347 Q38.0514,138.8828 40.5582,138.8828 Q41.2638,138.8828 41.9112,139.0322 Q42.5587,139.1816 43.1231,139.4805 L43.1231,142.2031 Q42.4923,141.6221 41.8988,141.3523 Q41.3053,141.0825 40.6744,141.0825 Q39.3297,141.0825 38.6449,142.1492 Q37.9601,143.2158 37.9601,145.3159 Q37.9601,147.4077 38.6449,148.4744 Q39.3297,149.541 40.6744,149.541 Q41.3053,149.541 41.8988,149.2712 Q42.4923,149.0015 43.1231,148.4204 Z " fill="#000000"/><text fill="#000000" font-family="sans-serif" font-size="12" lengthAdjust="spacing" textLength="88" x="58.35" y="149.5352">NaveAlienigena</text><line style="stroke:#A80036;stroke-width:1.5;" x1="10" x2="165" y1="161" y2="161"/><polygon fill="none" points="20,168,16,174,24,174" style="stroke:#1963A0;stroke-width:1.0;"/><text fill="#000000" font-family="sans-serif" font-size="11" lengthAdjust="spacing" textLength="72" x="29" y="175.6348">Random rand</text><line style="stroke:#A80036;stroke-width:1.5;" x1="10" x2="165" y1="181.9551" y2="181.9551"/><ellipse cx="20" cy="192.9551" fill="#84BE84" rx="3" ry="3" style="stroke:#038048;stroke-width:1.0;"/><text fill="#000000" font-family="sans-serif" font-size="11" lengthAdjust="spacing" textLength="131" x="29" y="196.5898">void SetaJogo(Jogo jogo)</text><rect fill="#F24D5C" height="6" style="stroke:#C82930;stroke-width:1.0;" width="6" x="17" y="202.9102"/><text fill="#000000" font-family="sans-serif" font-size="11" lengthAdjust="spacing" textLength="82" x="29" y="209.5449">void TiroNave()</text><ellipse cx="20" cy="218.8652" fill="#84BE84" rx="3" ry="3" style="stroke:#038048;stroke-width:1.0;"/><text fill="#000000" font-family="sans-serif" font-size="11" lengthAdjust="spacing" textLength="81" x="29" y="222.5">void executar()</text><ellipse cx="20" cy="231.8203" fill="#84BE84" rx="3" ry="3" style="stroke:#038048;stroke-width:1.0;"/><text fill="#000000" font-family="sans-serif" font-size="11" lengthAdjust="spacing" textLength="125" x="29" y="235.4551">ImageIcon buildImage()</text></a><!--MD5=[b0e5f62e276193155aa1339a105a0fad]
class Jogo--><a href="java:Jogo" target="_top" title="java:Jogo" xlink:actuate="onRequest" xlink:href="java:Jogo" xlink:show="new" xlink:title="java:Jogo" xlink:type="simple"><rect codeLine="65" fill="#FEFECE" filter="url(#f13igoophm5ygj)" height="125.7305" id="Jogo" style="stroke:#A80036;stroke-width:1.5;" width="153" x="533" y="332"/><ellipse cx="592.75" cy="348" fill="#ADD1B2" rx="11" ry="11" style="stroke:#A80036;stroke-width:1.0;"/><path d="M595.2231,354.1431 Q594.6421,354.4419 594.0029,354.5913 Q593.3638,354.7407 592.6582,354.7407 Q590.1514,354.7407 588.8315,353.0889 Q587.5117,351.437 587.5117,348.3159 Q587.5117,345.1865 588.8315,343.5347 Q590.1514,341.8828 592.6582,341.8828 Q593.3638,341.8828 594.0112,342.0322 Q594.6587,342.1816 595.2231,342.4805 L595.2231,345.2031 Q594.5923,344.6221 593.9988,344.3523 Q593.4053,344.0825 592.7744,344.0825 Q591.4297,344.0825 590.7449,345.1492 Q590.0601,346.2158 590.0601,348.3159 Q590.0601,350.4077 590.7449,351.4744 Q591.4297,352.541 592.7744,352.541 Q593.4053,352.541 593.9988,352.2712 Q594.5923,352.0015 595.2231,351.4204 Z " fill="#000000"/><text fill="#000000" font-family="sans-serif" font-size="12" lengthAdjust="spacing" textLength="25" x="613.25" y="352.5352">Jogo</text><line style="stroke:#A80036;stroke-width:1.5;" x1="534" x2="685" y1="364" y2="364"/><rect fill="none" height="6" style="stroke:#C82930;stroke-width:1.0;" width="6" x="541" y="372"/><text fill="#000000" font-family="sans-serif" font-size="11" lengthAdjust="spacing" textLength="89" x="553" y="378.6348">boolean jogoFim</text><polygon fill="none" points="544,383.9551,540,389.9551,548,389.9551" style="stroke:#1963A0;stroke-width:1.0;"/><text fill="#000000" font-family="sans-serif" font-size="11" lengthAdjust="spacing" textLength="53" x="553" y="391.5898">int coluna</text><line style="stroke:#A80036;stroke-width:1.5;" x1="534" x2="685" y1="397.9102" y2="397.9102"/><polygon fill="#4177AF" points="544,404.9102,540,410.9102,548,410.9102" style="stroke:#1963A0;stroke-width:1.0;"/><text fill="#000000" font-family="sans-serif" font-size="11" lengthAdjust="spacing" textLength="110" x="553" y="412.5449">boolean EhJogoFim()</text><ellipse cx="544" cy="421.8652" fill="#84BE84" rx="3" ry="3" style="stroke:#038048;stroke-width:1.0;"/><text fill="#000000" font-family="sans-serif" font-size="11" lengthAdjust="spacing" textLength="99" x="553" y="425.5">void JogoAcabou()</text><ellipse cx="544" cy="434.8203" fill="#84BE84" rx="3" ry="3" style="stroke:#038048;stroke-width:1.0;"/><text fill="#000000" font-family="sans-serif" font-size="11" lengthAdjust="spacing" textLength="127" x="553" y="438.4551">void SetaColuna(int col)</text><ellipse cx="544" cy="447.7754" fill="#84BE84" rx="3" ry="3" style="stroke:#038048;stroke-width:1.0;"/><text fill="#000000" font-family="sans-serif" font-size="11" lengthAdjust="spacing" textLength="88" x="553" y="451.4102">int PegaColuna()</text></a><!--MD5=[74c855a0554c85cbb8ee8f563997472c]
class ObjetoDoMundoAdapter--><a href="java:br.furb.furbot.ObjetoDoMundoAdapter" target="_top" title="java:br.furb.furbot.ObjetoDoMundoAdapter" xlink:actuate="onRequest" xlink:href="java:br.furb.furbot.ObjetoDoMundoAdapter" xlink:show="new" xlink:title="java:br.furb.furbot.ObjetoDoMundoAdapter" xlink:type="simple"><rect codeLine="68" fill="#FEFECE" filter="url(#f13igoophm5ygj)" height="48" id="ObjetoDoMundoAdapter" style="stroke:#A80036;stroke-width:1.5;" width="173" x="338" y="7"/><ellipse cx="353" cy="23" fill="#ADD1B2" rx="11" ry="11" style="stroke:#A80036;stroke-width:1.0;"/><path d="M355.4731,29.1431 Q354.8921,29.4419 354.2529,29.5913 Q353.6138,29.7407 352.9082,29.7407 Q350.4014,29.7407 349.0815,28.0889 Q347.7617,26.437 347.7617,23.3159 Q347.7617,20.1865 349.0815,18.5347 Q350.4014,16.8828 352.9082,16.8828 Q353.6138,16.8828 354.2612,17.0322 Q354.9087,17.1816 355.4731,17.4805 L355.4731,20.2031 Q354.8423,19.6221 354.2488,19.3523 Q353.6553,19.0825 353.0244,19.0825 Q351.6797,19.0825 350.9949,20.1492 Q350.3101,21.2158 350.3101,23.3159 Q350.3101,25.4077 350.9949,26.4744 Q351.6797,27.541 353.0244,27.541 Q353.6553,27.541 354.2488,27.2712 Q354.8423,27.0015 355.4731,26.4204 Z " fill="#000000"/><text fill="#000000" font-family="sans-serif" font-size="12" lengthAdjust="spacing" textLength="141" x="367" y="27.5352">ObjetoDoMundoAdapter</text><line style="stroke:#A80036;stroke-width:1.5;" x1="339" x2="510" y1="39" y2="39"/><line style="stroke:#A80036;stroke-width:1.5;" x1="339" x2="510" y1="47" y2="47"/></a><!--MD5=[cba5ab7aa572f528ee4f5e7ff73e1de3]
class Invasor--><a href="java:Invasor" target="_top" title="java:Invasor" xlink:actuate="onRequest" xlink:href="java:Invasor" xlink:show="new" xlink:title="java:Invasor" xlink:type="simple"><rect codeLine="14" fill="#FEFECE" filter="url(#f13igoophm5ygj)" height="138.6855" id="Invasor" style="stroke:#A80036;stroke-width:1.5;" width="294" x="201.5" y="116"/><ellipse cx="323.75" cy="132" fill="#ADD1B2" rx="11" ry="11" style="stroke:#A80036;stroke-width:1.0;"/><path d="M326.2231,138.1431 Q325.6421,138.4419 325.0029,138.5913 Q324.3638,138.7407 323.6582,138.7407 Q321.1514,138.7407 319.8315,137.0889 Q318.5117,135.437 318.5117,132.3159 Q318.5117,129.1865 319.8315,127.5347 Q321.1514,125.8828 323.6582,125.8828 Q324.3638,125.8828 325.0112,126.0322 Q325.6587,126.1816 326.2231,126.4805 L326.2231,129.2031 Q325.5923,128.6221 324.9988,128.3523 Q324.4053,128.0825 323.7744,128.0825 Q322.4297,128.0825 321.7449,129.1492 Q321.0601,130.2158 321.0601,132.3159 Q321.0601,134.4077 321.7449,135.4744 Q322.4297,136.541 323.7744,136.541 Q324.4053,136.541 324.9988,136.2712 Q325.5923,136.0015 326.2231,135.4204 Z " fill="#000000"/><text fill="#000000" font-family="sans-serif" font-size="12" lengthAdjust="spacing" textLength="41" x="344.25" y="136.5352">Invasor</text><line style="stroke:#A80036;stroke-width:1.5;" x1="202.5" x2="494.5" y1="148" y2="148"/><polygon fill="none" points="212.5,155,208.5,161,216.5,161" style="stroke:#1963A0;stroke-width:1.0;"/><text fill="#000000" font-family="sans-serif" font-size="11" lengthAdjust="spacing" textLength="99" x="221.5" y="162.6348">boolean estouVivo</text><line style="stroke:#A80036;stroke-width:1.5;" x1="202.5" x2="494.5" y1="168.9551" y2="168.9551"/><ellipse cx="212.5" cy="179.9551" fill="#84BE84" rx="3" ry="3" style="stroke:#038048;stroke-width:1.0;"/><text fill="#000000" font-family="sans-serif" font-size="11" lengthAdjust="spacing" textLength="63" x="221.5" y="183.5898">void Morri()</text><ellipse cx="212.5" cy="192.9102" fill="#84BE84" rx="3" ry="3" style="stroke:#038048;stroke-width:1.0;"/><text fill="#000000" font-family="sans-serif" font-size="11" lengthAdjust="spacing" textLength="131" x="221.5" y="196.5449">void SetaJogo(Jogo jogo)</text><rect fill="#F24D5C" height="6" style="stroke:#C82930;stroke-width:1.0;" width="6" x="209.5" y="202.8652"/><text fill="#000000" font-family="sans-serif" font-size="11" lengthAdjust="spacing" textLength="117" x="221.5" y="209.5">boolean UltimaLinha()</text><rect fill="#F24D5C" height="6" style="stroke:#C82930;stroke-width:1.0;" width="6" x="209.5" y="215.8203"/><text fill="#000000" font-family="sans-serif" font-size="11" lengthAdjust="spacing" textLength="268" x="221.5" y="222.4551">boolean AndarLateralmente(boolean andarDireita)</text><ellipse cx="212.5" cy="231.7754" fill="#84BE84" rx="3" ry="3" style="stroke:#038048;stroke-width:1.0;"/><text fill="#000000" font-family="sans-serif" font-size="11" lengthAdjust="spacing" textLength="81" x="221.5" y="235.4102">void executar()</text><ellipse cx="212.5" cy="244.7305" fill="#84BE84" rx="3" ry="3" style="stroke:#038048;stroke-width:1.0;"/><text fill="#000000" font-family="sans-serif" font-size="11" lengthAdjust="spacing" textLength="125" x="221.5" y="248.3652">ImageIcon buildImage()</text></a><!--MD5=[36672dd6a05bc9a35a180d42dc3f479c]
class SpaceInvaders--><a href="java:SpaceInvaders" target="_top" title="java:SpaceInvaders" xlink:actuate="onRequest" xlink:href="java:SpaceInvaders" xlink:show="new" xlink:title="java:SpaceInvaders" xlink:type="simple"><rect codeLine="29" fill="#FEFECE" filter="url(#f13igoophm5ygj)" height="99.8203" id="SpaceInvaders" style="stroke:#A80036;stroke-width:1.5;" width="202" x="915.5" y="135.5"/><ellipse cx="970.75" cy="151.5" fill="#ADD1B2" rx="11" ry="11" style="stroke:#A80036;stroke-width:1.0;"/><path d="M973.2231,157.6431 Q972.6421,157.9419 972.0029,158.0913 Q971.3638,158.2407 970.6582,158.2407 Q968.1514,158.2407 966.8315,156.5889 Q965.5117,154.937 965.5117,151.8159 Q965.5117,148.6865 966.8315,147.0347 Q968.1514,145.3828 970.6582,145.3828 Q971.3638,145.3828 972.0112,145.5322 Q972.6587,145.6816 973.2231,145.9805 L973.2231,148.7031 Q972.5923,148.1221 971.9988,147.8523 Q971.4053,147.5825 970.7744,147.5825 Q969.4297,147.5825 968.7449,148.6492 Q968.0601,149.7158 968.0601,151.8159 Q968.0601,153.9077 968.7449,154.9744 Q969.4297,156.041 970.7744,156.041 Q971.4053,156.041 971.9988,155.7712 Q972.5923,155.5015 973.2231,154.9204 Z " fill="#000000"/><text fill="#000000" font-family="sans-serif" font-size="12" lengthAdjust="spacing" textLength="83" x="991.25" y="156.0352">SpaceInvaders</text><line style="stroke:#A80036;stroke-width:1.5;" x1="916.5" x2="1116.5" y1="167.5" y2="167.5"/><line style="stroke:#A80036;stroke-width:1.5;" x1="916.5" x2="1116.5" y1="175.5" y2="175.5"/><ellipse cx="926.5" cy="186.5" fill="#84BE84" rx="3" ry="3" style="stroke:#038048;stroke-width:1.0;"/><text fill="#000000" font-family="sans-serif" font-size="11" lengthAdjust="spacing" text-decoration="underline" textLength="127" x="935.5" y="190.1348">void main(String[] args)</text><rect fill="#F24D5C" height="6" style="stroke:#C82930;stroke-width:1.0;" width="6" x="923.5" y="196.4551"/><text fill="#000000" font-family="sans-serif" font-size="11" lengthAdjust="spacing" textLength="176" x="935.5" y="203.0898">void AdicionaAsteroidesMundo()</text><ellipse cx="926.5" cy="212.4102" fill="#84BE84" rx="3" ry="3" style="stroke:#038048;stroke-width:1.0;"/><text fill="#000000" font-family="sans-serif" font-size="11" lengthAdjust="spacing" textLength="95" x="935.5" y="216.0449">void inteligencia()</text><ellipse cx="926.5" cy="225.3652" fill="#84BE84" rx="3" ry="3" style="stroke:#038048;stroke-width:1.0;"/><text fill="#000000" font-family="sans-serif" font-size="11" lengthAdjust="spacing" textLength="125" x="935.5" y="229">ImageIcon buildImage()</text></a><!--MD5=[719a8822050f97748354c1bae6b7720e]
class Furbot--><a href="java:br.furb.furbot.Furbot" target="_top" title="java:br.furb.furbot.Furbot" xlink:actuate="onRequest" xlink:href="java:br.furb.furbot.Furbot" xlink:show="new" xlink:title="java:br.furb.furbot.Furbot" xlink:type="simple"><rect codeLine="38" fill="#FEFECE" filter="url(#f13igoophm5ygj)" height="48" id="Furbot" style="stroke:#A80036;stroke-width:1.5;" width="69" x="982" y="7"/><ellipse cx="997" cy="23" fill="#ADD1B2" rx="11" ry="11" style="stroke:#A80036;stroke-width:1.0;"/><path d="M999.4731,29.1431 Q998.8921,29.4419 998.2529,29.5913 Q997.6138,29.7407 996.9082,29.7407 Q994.4014,29.7407 993.0815,28.0889 Q991.7617,26.437 991.7617,23.3159 Q991.7617,20.1865 993.0815,18.5347 Q994.4014,16.8828 996.9082,16.8828 Q997.6138,16.8828 998.2612,17.0322 Q998.9087,17.1816 999.4731,17.4805 L999.4731,20.2031 Q998.8423,19.6221 998.2488,19.3523 Q997.6553,19.0825 997.0244,19.0825 Q995.6797,19.0825 994.9949,20.1492 Q994.3101,21.2158 994.3101,23.3159 Q994.3101,25.4077 994.9949,26.4744 Q995.6797,27.541 997.0244,27.541 Q997.6553,27.541 998.2488,27.2712 Q998.8423,27.0015 999.4731,26.4204 Z " fill="#000000"/><text fill="#000000" font-family="sans-serif" font-size="12" lengthAdjust="spacing" textLength="37" x="1011" y="27.5352">Furbot</text><line style="stroke:#A80036;stroke-width:1.5;" x1="983" x2="1050" y1="39" y2="39"/><line style="stroke:#A80036;stroke-width:1.5;" x1="983" x2="1050" y1="47" y2="47"/></a><!--MD5=[8a70ad8f9dfa694e44ba27e3f0d28e98]
class SpaceInvaders_Tiro--><a href="java:SpaceInvaders_Tiro" target="_top" title="java:SpaceInvaders_Tiro" xlink:actuate="onRequest" xlink:href="java:SpaceInvaders_Tiro" xlink:show="new" xlink:title="java:SpaceInvaders_Tiro" xlink:type="simple"><rect codeLine="49" fill="#FEFECE" filter="url(#f13igoophm5ygj)" height="86.8652" id="SpaceInvaders_Tiro" style="stroke:#A80036;stroke-width:1.5;" width="157" x="531" y="142"/><ellipse cx="551.85" cy="158" fill="#ADD1B2" rx="11" ry="11" style="stroke:#A80036;stroke-width:1.0;"/><path d="M554.3231,164.1431 Q553.7421,164.4419 553.1029,164.5913 Q552.4638,164.7407 551.7582,164.7407 Q549.2514,164.7407 547.9315,163.0889 Q546.6117,161.437 546.6117,158.3159 Q546.6117,155.1865 547.9315,153.5347 Q549.2514,151.8828 551.7582,151.8828 Q552.4638,151.8828 553.1112,152.0322 Q553.7587,152.1816 554.3231,152.4805 L554.3231,155.2031 Q553.6923,154.6221 553.0988,154.3523 Q552.5053,154.0825 551.8744,154.0825 Q550.5297,154.0825 549.8449,155.1492 Q549.1601,156.2158 549.1601,158.3159 Q549.1601,160.4077 549.8449,161.4744 Q550.5297,162.541 551.8744,162.541 Q552.5053,162.541 553.0988,162.2712 Q553.6923,162.0015 554.3231,161.4204 Z " fill="#000000"/><text fill="#000000" font-family="sans-serif" font-size="12" lengthAdjust="spacing" textLength="112" x="567.15" y="162.5352">SpaceInvaders_Tiro</text><line style="stroke:#A80036;stroke-width:1.5;" x1="532" x2="687" y1="174" y2="174"/><line style="stroke:#A80036;stroke-width:1.5;" x1="532" x2="687" y1="182" y2="182"/><ellipse cx="542" cy="193" fill="#84BE84" rx="3" ry="3" style="stroke:#038048;stroke-width:1.0;"/><text fill="#000000" font-family="sans-serif" font-size="11" lengthAdjust="spacing" textLength="131" x="551" y="196.6348">void SetaJogo(Jogo jogo)</text><ellipse cx="542" cy="205.9551" fill="#84BE84" rx="3" ry="3" style="stroke:#038048;stroke-width:1.0;"/><text fill="#000000" font-family="sans-serif" font-size="11" lengthAdjust="spacing" textLength="81" x="551" y="209.5898">void executar()</text><ellipse cx="542" cy="218.9102" fill="#84BE84" rx="3" ry="3" style="stroke:#038048;stroke-width:1.0;"/><text fill="#000000" font-family="sans-serif" font-size="11" lengthAdjust="spacing" textLength="125" x="551" y="222.5449">ImageIcon buildImage()</text></a><!--MD5=[1ac551eef732a6b6b05cafcff8d7b82d]
class NaveAlienigena_Tiro--><a href="java:NaveAlienigena_Tiro" target="_top" title="java:NaveAlienigena_Tiro" xlink:actuate="onRequest" xlink:href="java:NaveAlienigena_Tiro" xlink:show="new" xlink:title="java:NaveAlienigena_Tiro" xlink:type="simple"><rect codeLine="60" fill="#FEFECE" filter="url(#f13igoophm5ygj)" height="86.8652" id="NaveAlienigena_Tiro" style="stroke:#A80036;stroke-width:1.5;" width="157" x="723" y="142"/><ellipse cx="741.6" cy="158" fill="#ADD1B2" rx="11" ry="11" style="stroke:#A80036;stroke-width:1.0;"/><path d="M744.0731,164.1431 Q743.4921,164.4419 742.8529,164.5913 Q742.2138,164.7407 741.5082,164.7407 Q739.0014,164.7407 737.6815,163.0889 Q736.3617,161.437 736.3617,158.3159 Q736.3617,155.1865 737.6815,153.5347 Q739.0014,151.8828 741.5082,151.8828 Q742.2138,151.8828 742.8612,152.0322 Q743.5087,152.1816 744.0731,152.4805 L744.0731,155.2031 Q743.4423,154.6221 742.8488,154.3523 Q742.2553,154.0825 741.6244,154.0825 Q740.2797,154.0825 739.5949,155.1492 Q738.9101,156.2158 738.9101,158.3159 Q738.9101,160.4077 739.5949,161.4744 Q740.2797,162.541 741.6244,162.541 Q742.2553,162.541 742.8488,162.2712 Q743.4423,162.0015 744.0731,161.4204 Z " fill="#000000"/><text fill="#000000" font-family="sans-serif" font-size="12" lengthAdjust="spacing" textLength="117" x="756.4" y="162.5352">NaveAlienigena_Tiro</text><line style="stroke:#A80036;stroke-width:1.5;" x1="724" x2="879" y1="174" y2="174"/><line style="stroke:#A80036;stroke-width:1.5;" x1="724" x2="879" y1="182" y2="182"/><ellipse cx="734" cy="193" fill="#84BE84" rx="3" ry="3" style="stroke:#038048;stroke-width:1.0;"/><text fill="#000000" font-family="sans-serif" font-size="11" lengthAdjust="spacing" textLength="131" x="743" y="196.6348">void SetaJogo(Jogo jogo)</text><ellipse cx="734" cy="205.9551" fill="#84BE84" rx="3" ry="3" style="stroke:#038048;stroke-width:1.0;"/><text fill="#000000" font-family="sans-serif" font-size="11" lengthAdjust="spacing" textLength="81" x="743" y="209.5898">void executar()</text><ellipse cx="734" cy="218.9102" fill="#84BE84" rx="3" ry="3" style="stroke:#038048;stroke-width:1.0;"/><text fill="#000000" font-family="sans-serif" font-size="11" lengthAdjust="spacing" textLength="125" x="743" y="222.5449">ImageIcon buildImage()</text></a><!--MD5=[f60a442253c250c4da7b3d350c11fdf4]
link NaveAlienigena to Jogo--><path codeLine="10" d="M161.003,242.1056 C168.4174,246.7738 175.9866,251.1638 183.5,255 C297.1414,313.0225 439.8877,354.1354 527.8882,376.2072 " fill="none" id="NaveAlienigena-to-Jogo" style="stroke:#A80036;stroke-width:1.0;"/><polygon fill="#A80036" points="532.82,377.4386,525.0571,371.3774,527.9689,376.2273,523.1191,379.1391,532.82,377.4386" style="stroke:#A80036;stroke-width:1.0;"/><text fill="#000000" font-family="sans-serif" font-size="13" lengthAdjust="spacing" textLength="28" x="285.5" y="298.5684">jogo</text><text fill="#000000" font-family="sans-serif" font-size="13" lengthAdjust="spacing" textLength="8" x="516.8781" y="372.5685">1</text><!--MD5=[0f89e5ea5c613326bddb09e3ee2abb48]
reverse link ObjetoDoMundoAdapter to NaveAlienigena--><path codeLine="13" d="M318.4973,61.0864 C275.4292,75.1602 225.9239,93.7597 183.5,116 C176.1195,119.8692 168.6715,124.2536 161.3621,128.8933 " fill="none" id="ObjetoDoMundoAdapter-backto-NaveAlienigena" style="stroke:#A80036;stroke-width:1.0;"/><polygon fill="none" points="316.6026,54.3434,337.7838,54.9416,320.8526,67.6827,316.6026,54.3434" style="stroke:#A80036;stroke-width:1.0;"/><!--MD5=[0b3f36a9e00279b2e8d7eee2b0ee86dd]
link Invasor to Jogo--><path codeLine="25" d="M435.4092,255.2605 C465.4961,279.4107 499.0754,306.3642 528.6548,330.107 " fill="none" id="Invasor-to-Jogo" style="stroke:#A80036;stroke-width:1.0;"/><polygon fill="#A80036" points="532.6141,333.285,528.0995,324.5318,528.7149,330.1551,523.0916,330.7705,532.6141,333.285" style="stroke:#A80036;stroke-width:1.0;"/><text fill="#000000" font-family="sans-serif" font-size="13" lengthAdjust="spacing" textLength="28" x="488.5" y="298.5684">jogo</text><text fill="#000000" font-family="sans-serif" font-size="13" lengthAdjust="spacing" textLength="8" x="516.9047" y="324.2839">1</text><!--MD5=[60b3416e9e8be865f940d499acbd204a]
reverse link ObjetoDoMundoAdapter to Invasor--><path codeLine="28" d="M403.6066,73.4741 C397.1583,86.5828 389.8794,101.38 382.7758,115.8208 " fill="none" id="ObjetoDoMundoAdapter-backto-Invasor" style="stroke:#A80036;stroke-width:1.0;"/><polygon fill="none" points="397.5158,69.9971,412.625,55.1406,410.0782,76.1767,397.5158,69.9971" style="stroke:#A80036;stroke-width:1.0;"/><!--MD5=[1981c3d189d3c21adc47d33c80d70f73]
link SpaceInvaders to Jogo--><path codeLine="37" d="M932.4371,235.6589 C920.7793,242.3025 908.8961,248.9136 897.5,255 C828.8149,291.6831 749.0779,330.1337 690.9426,357.437 " fill="none" id="SpaceInvaders-to-Jogo" style="stroke:#A80036;stroke-width:1.0;"/><polygon fill="#A80036" points="686.0916,359.7129,695.9384,359.5112,690.6181,357.5891,692.5403,352.2688,686.0916,359.7129" style="stroke:#A80036;stroke-width:1.0;"/><text fill="#000000" font-family="sans-serif" font-size="13" lengthAdjust="spacing" textLength="28" x="836.5" y="298.5684">jogo</text><text fill="#000000" font-family="sans-serif" font-size="13" lengthAdjust="spacing" textLength="8" x="694.0248" y="353.098">1</text><!--MD5=[d5191fcaa6090ebe5afc9caed6037bb2]
reverse link Furbot to SpaceInvaders--><path codeLine="40" d="M1016.5,75.3382 C1016.5,94.0823 1016.5,116.006 1016.5,135.3383 " fill="none" id="Furbot-backto-SpaceInvaders" style="stroke:#A80036;stroke-width:1.0;"/><polygon fill="none" points="1009.5001,75.1407,1016.5,55.1406,1023.5001,75.1406,1009.5001,75.1407" style="stroke:#A80036;stroke-width:1.0;"/><!--MD5=[053a9f892d987ca82e3d4a3b77306ae9]
link SpaceInvaders_Tiro to Jogo--><path codeLine="56" d="M609.5,229.1631 C609.5,257.3927 609.5,294.7208 609.5,326.8132 " fill="none" id="SpaceInvaders_Tiro-to-Jogo" style="stroke:#A80036;stroke-width:1.0;"/><polygon fill="#A80036" points="609.5,331.9167,613.5,322.9167,609.5,326.9167,605.5,322.9167,609.5,331.9167" style="stroke:#A80036;stroke-width:1.0;"/><text fill="#000000" font-family="sans-serif" font-size="13" lengthAdjust="spacing" textLength="28" x="610.5" y="298.5684">jogo</text><text fill="#000000" font-family="sans-serif" font-size="13" lengthAdjust="spacing" textLength="8" x="601.0375" y="321.3574">1</text><!--MD5=[a606333d5f718e67fb708fc1037e86c5]
reverse link ObjetoDoMundoAdapter to SpaceInvaders_Tiro--><path codeLine="59" d="M468.9022,68.0818 C495.5092,90.3023 529.4718,118.6657 557.3516,141.949 " fill="none" id="ObjetoDoMundoAdapter-backto-SpaceInvaders_Tiro" style="stroke:#A80036;stroke-width:1.0;"/><polygon fill="none" points="464.2701,73.3335,453.4063,55.1406,473.2441,62.5879,464.2701,73.3335" style="stroke:#A80036;stroke-width:1.0;"/><!--MD5=[0afd3973c12be211172ad8e3bf54b794]
link NaveAlienigena_Tiro to Jogo--><path codeLine="67" d="M761.4842,229.1631 C735.2933,257.7412 700.5567,295.6439 670.9039,327.9994 " fill="none" id="NaveAlienigena_Tiro-to-Jogo" style="stroke:#A80036;stroke-width:1.0;"/><polygon fill="#A80036" points="667.3138,331.9167,676.3435,327.9843,670.6921,328.2306,670.4458,322.5791,667.3138,331.9167" style="stroke:#A80036;stroke-width:1.0;"/><text fill="#000000" font-family="sans-serif" font-size="13" lengthAdjust="spacing" textLength="28" x="706.5" y="298.5684">jogo</text><text fill="#000000" font-family="sans-serif" font-size="13" lengthAdjust="spacing" textLength="8" x="665.536" y="321.3574">1</text><!--MD5=[4d92e536e8d27f7c8611bde7228e4f34]
reverse link ObjetoDoMundoAdapter to NaveAlienigena_Tiro--><path codeLine="70" d="M530.902,54.2591 C584.8407,68.2469 650.4102,88.6933 705.5,116 C719.9718,123.1733 734.595,132.4823 747.9161,141.9428 " fill="none" id="ObjetoDoMundoAdapter-backto-NaveAlienigena_Tiro" style="stroke:#A80036;stroke-width:1.0;"/><polygon fill="none" points="528.9079,60.9756,511.2216,49.3054,532.3253,47.399,528.9079,60.9756" style="stroke:#A80036;stroke-width:1.0;"/><!--MD5=[c3b786bf8fd3b50b6ca35037f2541deb]
@startuml
class NaveAlienigena [[java:NaveAlienigena]] {
	~Random rand
	+void SetaJogo(Jogo jogo)
	-void TiroNave()
	+void executar()
	+ImageIcon buildImage()
}
class Jogo [[java:Jogo]] {
}
NaveAlienigena - -> "1" Jogo : jogo
class ObjetoDoMundoAdapter [[java:br.furb.furbot.ObjetoDoMundoAdapter]] {
}
ObjetoDoMundoAdapter <|- - NaveAlienigena
class Invasor [[java:Invasor]] {
	~boolean estouVivo
	+void Morri()
	+void SetaJogo(Jogo jogo)
	-boolean UltimaLinha()
	-boolean AndarLateralmente(boolean andarDireita)
	+void executar()
	+ImageIcon buildImage()
}
class Jogo [[java:Jogo]] {
}
Invasor - -> "1" Jogo : jogo
class ObjetoDoMundoAdapter [[java:br.furb.furbot.ObjetoDoMundoAdapter]] {
}
ObjetoDoMundoAdapter <|- - Invasor
class SpaceInvaders [[java:SpaceInvaders]] {
	+{static}void main(String[] args)
	-void AdicionaAsteroidesMundo()
	+void inteligencia()
	+ImageIcon buildImage()
}
class Jogo [[java:Jogo]] {
}
SpaceInvaders - -> "1" Jogo : jogo
class Furbot [[java:br.furb.furbot.Furbot]] {
}
Furbot <|- - SpaceInvaders
class Jogo [[java:Jogo]] {
	-boolean jogoFim
	~int coluna
	~boolean EhJogoFim()
	+void JogoAcabou()
	+void SetaColuna(int col)
	+int PegaColuna()
}
class SpaceInvaders_Tiro [[java:SpaceInvaders_Tiro]] {
	+void SetaJogo(Jogo jogo)
	+void executar()
	+ImageIcon buildImage()
}
class Jogo [[java:Jogo]] {
}
SpaceInvaders_Tiro - -> "1" Jogo : jogo
class ObjetoDoMundoAdapter [[java:br.furb.furbot.ObjetoDoMundoAdapter]] {
}
ObjetoDoMundoAdapter <|- - SpaceInvaders_Tiro
class NaveAlienigena_Tiro [[java:NaveAlienigena_Tiro]] {
	+void SetaJogo(Jogo jogo)
	+void executar()
	+ImageIcon buildImage()
}
class Jogo [[java:Jogo]] {
}
NaveAlienigena_Tiro - -> "1" Jogo : jogo
class ObjetoDoMundoAdapter [[java:br.furb.furbot.ObjetoDoMundoAdapter]] {
}
ObjetoDoMundoAdapter <|- - NaveAlienigena_Tiro
@enduml

PlantUML version 1.2021.7(Sun May 23 09:40:07 BRT 2021)
(GPL source distribution)
Java Runtime: OpenJDK Runtime Environment
JVM: OpenJDK 64-Bit Server VM
Default Encoding: UTF-8
Language: en
Country: BR
--></g></svg>