<?xml version="1.0" encoding="UTF-8" standalone="no"?><svg xmlns="http://www.w3.org/2000/svg" xmlns:xlink="http://www.w3.org/1999/xlink" contentScriptType="application/ecmascript" contentStyleType="text/css" height="868px" preserveAspectRatio="none" style="width:265px;height:868px;background:#FFFFFF;" version="1.1" viewBox="0 0 265 868" width="265px" zoomAndPan="magnify"><defs><filter height="300%" id="f1q0800kg7sz51" width="300%" x="-1" y="-1"><feGaussianBlur result="blurOut" stdDeviation="2.0"/><feColorMatrix in="blurOut" result="blurOut2" type="matrix" values="0 0 0 0 0 0 0 0 0 0 0 0 0 0 0 0 0 0 .4 0"/><feOffset dx="4.0" dy="4.0" in="blurOut2" result="blurOut3"/><feBlend in="SourceGraphic" in2="blurOut3" mode="normal"/></filter></defs><g><text fill="#000000" font-family="sans-serif" font-size="18" lengthAdjust="spacing" textLength="107" x="78" y="27.4023">Uni3Uri1012</text><ellipse cx="129.5" cy="41.1992" fill="#000000" filter="url(#f1q0800kg7sz51)" rx="10" ry="10" style="stroke:none;stroke-width:1.0;"/><rect fill="#FEFECE" filter="url(#f1q0800kg7sz51)" height="34.1328" rx="12.5" ry="12.5" style="stroke:#A80036;stroke-width:1.5;" width="51" x="104" y="71.1992"/><text fill="#000000" font-family="sans-serif" font-size="12" lengthAdjust="spacing" textLength="31" x="114" y="92.8008">ler(A)</text><rect fill="#FEFECE" filter="url(#f1q0800kg7sz51)" height="34.1328" rx="12.5" ry="12.5" style="stroke:#A80036;stroke-width:1.5;" width="50" x="104.5" y="125.332"/><text fill="#000000" font-family="sans-serif" font-size="12" lengthAdjust="spacing" textLength="30" x="114.5" y="146.9336">ler(B)</text><rect fill="#FEFECE" filter="url(#f1q0800kg7sz51)" height="34.1328" rx="12.5" ry="12.5" style="stroke:#A80036;stroke-width:1.5;" width="51" x="104" y="179.4648"/><text fill="#000000" font-family="sans-serif" font-size="12" lengthAdjust="spacing" textLength="31" x="114" y="201.0664">ler(C)</text><rect fill="#FEFECE" filter="url(#f1q0800kg7sz51)" height="34.1328" rx="12.5" ry="12.5" style="stroke:#A80036;stroke-width:1.5;" width="102" x="78.5" y="233.5977"/><text fill="#000000" font-family="sans-serif" font-size="12" lengthAdjust="spacing" textLength="82" x="88.5" y="255.1992">tri = (A * C)/2</text><rect fill="#FEFECE" filter="url(#f1q0800kg7sz51)" height="34.1328" rx="12.5" ry="12.5" style="stroke:#A80036;stroke-width:1.5;" width="101" x="79" y="287.7305"/><text fill="#000000" font-family="sans-serif" font-size="12" lengthAdjust="spacing" textLength="81" x="89" y="309.332">pi = 3.14159</text><rect fill="#FEFECE" filter="url(#f1q0800kg7sz51)" height="34.1328" rx="12.5" ry="12.5" style="stroke:#A80036;stroke-width:1.5;" width="188" x="35.5" y="341.8633"/><text fill="#000000" font-family="sans-serif" font-size="12" lengthAdjust="spacing" textLength="168" x="45.5" y="363.4648">circulo = pi * Math.pow(C, 2)</text><rect fill="#FEFECE" filter="url(#f1q0800kg7sz51)" height="34.1328" rx="12.5" ry="12.5" style="stroke:#A80036;stroke-width:1.5;" width="159" x="50" y="395.9961"/><text fill="#000000" font-family="sans-serif" font-size="12" lengthAdjust="spacing" textLength="139" x="60" y="417.5977">trapezio = ((A+B)* C)/2</text><rect fill="#FEFECE" filter="url(#f1q0800kg7sz51)" height="34.1328" rx="12.5" ry="12.5" style="stroke:#A80036;stroke-width:1.5;" width="182" x="38.5" y="450.1289"/><text fill="#000000" font-family="sans-serif" font-size="12" lengthAdjust="spacing" textLength="162" x="48.5" y="471.7305">quadrado = Math.pow(B, 2)</text><rect fill="#FEFECE" filter="url(#f1q0800kg7sz51)" height="34.1328" rx="12.5" ry="12.5" style="stroke:#A80036;stroke-width:1.5;" width="113" x="73" y="504.2617"/><text fill="#000000" font-family="sans-serif" font-size="12" lengthAdjust="spacing" textLength="93" x="83" y="525.8633">retangulo = A*B</text><rect fill="#FEFECE" filter="url(#f1q0800kg7sz51)" height="34.1328" rx="12.5" ry="12.5" style="stroke:#A80036;stroke-width:1.5;" width="191" x="34" y="558.3945"/><text fill="#000000" font-family="sans-serif" font-size="12" lengthAdjust="spacing" textLength="171" x="44" y="579.9961">escrever("TRIANGULO: " + tri)</text><rect fill="#FEFECE" filter="url(#f1q0800kg7sz51)" height="34.1328" rx="12.5" ry="12.5" style="stroke:#A80036;stroke-width:1.5;" width="198" x="30.5" y="612.5273"/><text fill="#000000" font-family="sans-serif" font-size="12" lengthAdjust="spacing" textLength="178" x="40.5" y="634.1289">escrever("CIRCULO: " + circulo)</text><rect fill="#FEFECE" filter="url(#f1q0800kg7sz51)" height="34.1328" rx="12.5" ry="12.5" style="stroke:#A80036;stroke-width:1.5;" width="212" x="23.5" y="666.6602"/><text fill="#000000" font-family="sans-serif" font-size="12" lengthAdjust="spacing" textLength="192" x="33.5" y="688.2617">escrever("TRAPEZIO: " + trapezio</text><rect fill="#FEFECE" filter="url(#f1q0800kg7sz51)" height="34.1328" rx="12.5" ry="12.5" style="stroke:#A80036;stroke-width:1.5;" width="236" x="11.5" y="720.793"/><text fill="#000000" font-family="sans-serif" font-size="12" lengthAdjust="spacing" textLength="216" x="21.5" y="742.3945">escrever("QUADRADO: " + quadrado)</text><rect fill="#FEFECE" filter="url(#f1q0800kg7sz51)" height="34.1328" rx="12.5" ry="12.5" style="stroke:#A80036;stroke-width:1.5;" width="237" x="11" y="774.9258"/><text fill="#000000" font-family="sans-serif" font-size="12" lengthAdjust="spacing" textLength="217" x="21" y="796.5273">escrever("RETANGULO: " + retangulo)</text><ellipse cx="129.5" cy="840.0586" fill="#FFFFFF" filter="url(#f1q0800kg7sz51)" rx="11" ry="11" style="stroke:#000000;stroke-width:1.0;"/><ellipse cx="129.5" cy="840.0586" fill="#000000" rx="6" ry="6" style="stroke:#7F7F7F;stroke-width:1.0;"/><line style="stroke:#A80036;stroke-width:1.5;" x1="129.5" x2="129.5" y1="51.1992" y2="71.1992"/><polygon fill="#A80036" points="125.5,61.1992,129.5,71.1992,133.5,61.1992,129.5,65.1992" style="stroke:#A80036;stroke-width:1.0;"/><line style="stroke:#A80036;stroke-width:1.5;" x1="129.5" x2="129.5" y1="105.332" y2="125.332"/><polygon fill="#A80036" points="125.5,115.332,129.5,125.332,133.5,115.332,129.5,119.332" style="stroke:#A80036;stroke-width:1.0;"/><line style="stroke:#A80036;stroke-width:1.5;" x1="129.5" x2="129.5" y1="159.4648" y2="179.4648"/><polygon fill="#A80036" points="125.5,169.4648,129.5,179.4648,133.5,169.4648,129.5,173.4648" style="stroke:#A80036;stroke-width:1.0;"/><line style="stroke:#A80036;stroke-width:1.5;" x1="129.5" x2="129.5" y1="213.5977" y2="233.5977"/><polygon fill="#A80036" points="125.5,223.5977,129.5,233.5977,133.5,223.5977,129.5,227.5977" style="stroke:#A80036;stroke-width:1.0;"/><line style="stroke:#A80036;stroke-width:1.5;" x1="129.5" x2="129.5" y1="267.7305" y2="287.7305"/><polygon fill="#A80036" points="125.5,277.7305,129.5,287.7305,133.5,277.7305,129.5,281.7305" style="stroke:#A80036;stroke-width:1.0;"/><line style="stroke:#A80036;stroke-width:1.5;" x1="129.5" x2="129.5" y1="321.8633" y2="341.8633"/><polygon fill="#A80036" points="125.5,331.8633,129.5,341.8633,133.5,331.8633,129.5,335.8633" style="stroke:#A80036;stroke-width:1.0;"/><line style="stroke:#A80036;stroke-width:1.5;" x1="129.5" x2="129.5" y1="375.9961" y2="395.9961"/><polygon fill="#A80036" points="125.5,385.9961,129.5,395.9961,133.5,385.9961,129.5,389.9961" style="stroke:#A80036;stroke-width:1.0;"/><line style="stroke:#A80036;stroke-width:1.5;" x1="129.5" x2="129.5" y1="430.1289" y2="450.1289"/><polygon fill="#A80036" points="125.5,440.1289,129.5,450.1289,133.5,440.1289,129.5,444.1289" style="stroke:#A80036;stroke-width:1.0;"/><line style="stroke:#A80036;stroke-width:1.5;" x1="129.5" x2="129.5" y1="484.2617" y2="504.2617"/><polygon fill="#A80036" points="125.5,494.2617,129.5,504.2617,133.5,494.2617,129.5,498.2617" style="stroke:#A80036;stroke-width:1.0;"/><line style="stroke:#A80036;stroke-width:1.5;" x1="129.5" x2="129.5" y1="538.3945" y2="558.3945"/><polygon fill="#A80036" points="125.5,548.3945,129.5,558.3945,133.5,548.3945,129.5,552.3945" style="stroke:#A80036;stroke-width:1.0;"/><line style="stroke:#A80036;stroke-width:1.5;" x1="129.5" x2="129.5" y1="592.5273" y2="612.5273"/><polygon fill="#A80036" points="125.5,602.5273,129.5,612.5273,133.5,602.5273,129.5,606.5273" style="stroke:#A80036;stroke-width:1.0;"/><line style="stroke:#A80036;stroke-width:1.5;" x1="129.5" x2="129.5" y1="646.6602" y2="666.6602"/><polygon fill="#A80036" points="125.5,656.6602,129.5,666.6602,133.5,656.6602,129.5,660.6602" style="stroke:#A80036;stroke-width:1.0;"/><line style="stroke:#A80036;stroke-width:1.5;" x1="129.5" x2="129.5" y1="700.793" y2="720.793"/><polygon fill="#A80036" points="125.5,710.793,129.5,720.793,133.5,710.793,129.5,714.793" style="stroke:#A80036;stroke-width:1.0;"/><line style="stroke:#A80036;stroke-width:1.5;" x1="129.5" x2="129.5" y1="754.9258" y2="774.9258"/><polygon fill="#A80036" points="125.5,764.9258,129.5,774.9258,133.5,764.9258,129.5,768.9258" style="stroke:#A80036;stroke-width:1.0;"/><line style="stroke:#A80036;stroke-width:1.5;" x1="129.5" x2="129.5" y1="809.0586" y2="829.0586"/><polygon fill="#A80036" points="125.5,819.0586,129.5,829.0586,133.5,819.0586,129.5,823.0586" style="stroke:#A80036;stroke-width:1.0;"/><!--MD5=[8711167e445fdbd5f8002e733116b8d5]
@startuml Uni3Uri1012
	title Uni3Uri1012
	start
	:ler(A);
	:ler(B);
	:ler(C);
	:tri = (A * C)/2;
	:pi = 3.14159;
	:circulo = pi * Math.pow(C, 2);
	:trapezio = ((A+B)* C)/2;
	:quadrado = Math.pow(B, 2);
	:retangulo = A*B;
	:escrever("TRIANGULO: " + tri);
	:escrever("CIRCULO: " + circulo);
	:escrever("TRAPEZIO: " + trapezio;
	:escrever("QUADRADO: " + quadrado);
	:escrever("RETANGULO: " + retangulo);
	stop
@enduml

PlantUML version 1.2021.14(Fri Nov 12 13:46:50 BRT 2021)
(GPL source distribution)
Java Runtime: OpenJDK Runtime Environment
JVM: OpenJDK 64-Bit Server VM
Default Encoding: UTF-8
Language: en
Country: BR
--></g></svg>