<?xml version="1.0" encoding="UTF-8" standalone="no"?><svg xmlns="http://www.w3.org/2000/svg" xmlns:xlink="http://www.w3.org/1999/xlink" contentScriptType="application/ecmascript" contentStyleType="text/css" height="326px" preserveAspectRatio="none" style="width:165px;height:326px;background:#FFFFFF;" version="1.1" viewBox="0 0 165 326" width="165px" zoomAndPan="magnify"><defs><filter height="300%" id="f106aoj9588fp2" width="300%" x="-1" y="-1"><feGaussianBlur result="blurOut" stdDeviation="2.0"/><feColorMatrix in="blurOut" result="blurOut2" type="matrix" values="0 0 0 0 0 0 0 0 0 0 0 0 0 0 0 0 0 0 .4 0"/><feOffset dx="4.0" dy="4.0" in="blurOut2" result="blurOut3"/><feBlend in="SourceGraphic" in2="blurOut3" mode="normal"/></filter></defs><g><text fill="#000000" font-family="sans-serif" font-size="18" lengthAdjust="spacing" textLength="107" x="28" y="27.4023">Uni3Uri1001</text><ellipse cx="79.5" cy="41.1992" fill="#000000" filter="url(#f106aoj9588fp2)" rx="10" ry="10" style="stroke:none;stroke-width:1.0;"/><rect fill="#FEFECE" filter="url(#f106aoj9588fp2)" height="34.1328" rx="12.5" ry="12.5" style="stroke:#A80036;stroke-width:1.5;" width="51" x="54" y="71.1992"/><text fill="#000000" font-family="sans-serif" font-size="12" lengthAdjust="spacing" textLength="31" x="64" y="92.8008">ler(A)</text><rect fill="#FEFECE" filter="url(#f106aoj9588fp2)" height="34.1328" rx="12.5" ry="12.5" style="stroke:#A80036;stroke-width:1.5;" width="50" x="54.5" y="125.332"/><text fill="#000000" font-family="sans-serif" font-size="12" lengthAdjust="spacing" textLength="30" x="64.5" y="146.9336">ler(B)</text><rect fill="#FEFECE" filter="url(#f106aoj9588fp2)" height="34.1328" rx="12.5" ry="12.5" style="stroke:#A80036;stroke-width:1.5;" width="79" x="40" y="179.4648"/><text fill="#000000" font-family="sans-serif" font-size="12" lengthAdjust="spacing" textLength="59" x="50" y="201.0664">X = A + B</text><rect fill="#FEFECE" filter="url(#f106aoj9588fp2)" height="34.1328" rx="12.5" ry="12.5" style="stroke:#A80036;stroke-width:1.5;" width="137" x="11" y="233.5977"/><text fill="#000000" font-family="sans-serif" font-size="12" lengthAdjust="spacing" textLength="117" x="21" y="255.1992">escrever("X = " + X)</text><ellipse cx="79.5" cy="298.7305" fill="#FFFFFF" filter="url(#f106aoj9588fp2)" rx="11" ry="11" style="stroke:#000000;stroke-width:1.0;"/><ellipse cx="79.5" cy="298.7305" fill="#000000" rx="6" ry="6" style="stroke:#7F7F7F;stroke-width:1.0;"/><line style="stroke:#A80036;stroke-width:1.5;" x1="79.5" x2="79.5" y1="51.1992" y2="71.1992"/><polygon fill="#A80036" points="75.5,61.1992,79.5,71.1992,83.5,61.1992,79.5,65.1992" style="stroke:#A80036;stroke-width:1.0;"/><line style="stroke:#A80036;stroke-width:1.5;" x1="79.5" x2="79.5" y1="105.332" y2="125.332"/><polygon fill="#A80036" points="75.5,115.332,79.5,125.332,83.5,115.332,79.5,119.332" style="stroke:#A80036;stroke-width:1.0;"/><line style="stroke:#A80036;stroke-width:1.5;" x1="79.5" x2="79.5" y1="159.4648" y2="179.4648"/><polygon fill="#A80036" points="75.5,169.4648,79.5,179.4648,83.5,169.4648,79.5,173.4648" style="stroke:#A80036;stroke-width:1.0;"/><line style="stroke:#A80036;stroke-width:1.5;" x1="79.5" x2="79.5" y1="213.5977" y2="233.5977"/><polygon fill="#A80036" points="75.5,223.5977,79.5,233.5977,83.5,223.5977,79.5,227.5977" style="stroke:#A80036;stroke-width:1.0;"/><line style="stroke:#A80036;stroke-width:1.5;" x1="79.5" x2="79.5" y1="267.7305" y2="287.7305"/><polygon fill="#A80036" points="75.5,277.7305,79.5,287.7305,83.5,277.7305,79.5,281.7305" style="stroke:#A80036;stroke-width:1.0;"/><!--MD5=[6b7d5dfc61ee452077f25331a98efb13]
@startuml Uni3Uri1001
	title Uni3Uri1001
	start
		:ler(A);
		:ler(B);
		:X = A + B;
		:escrever("X = " + X);
	stop
@enduml

PlantUML version 1.2021.14(Fri Nov 12 13:46:50 BRT 2021)
(GPL source distribution)
Java Runtime: OpenJDK Runtime Environment
JVM: OpenJDK 64-Bit Server VM
Default Encoding: UTF-8
Language: en
Country: BR
--></g></svg>