<?xml version="1.0" encoding="UTF-8" standalone="no"?><svg xmlns="http://www.w3.org/2000/svg" xmlns:xlink="http://www.w3.org/1999/xlink" contentScriptType="application/ecmascript" contentStyleType="text/css" height="543px" preserveAspectRatio="none" style="width:389px;height:543px;background:#FFFFFF;" version="1.1" viewBox="0 0 389 543" width="389px" zoomAndPan="magnify"><defs><filter height="300%" id="f15wh41nmqr1ga" width="300%" x="-1" y="-1"><feGaussianBlur result="blurOut" stdDeviation="2.0"/><feColorMatrix in="blurOut" result="blurOut2" type="matrix" values="0 0 0 0 0 0 0 0 0 0 0 0 0 0 0 0 0 0 .4 0"/><feOffset dx="4.0" dy="4.0" in="blurOut2" result="blurOut3"/><feBlend in="SourceGraphic" in2="blurOut3" mode="normal"/></filter></defs><g><text fill="#000000" font-family="sans-serif" font-size="18" lengthAdjust="spacing" textLength="107" x="140" y="27.4023">Uni3Uri1010</text><ellipse cx="191.5" cy="41.1992" fill="#000000" filter="url(#f15wh41nmqr1ga)" rx="10" ry="10" style="stroke:none;stroke-width:1.0;"/><rect fill="#FEFECE" filter="url(#f15wh41nmqr1ga)" height="34.1328" rx="12.5" ry="12.5" style="stroke:#A80036;stroke-width:1.5;" width="99" x="142" y="71.1992"/><text fill="#000000" font-family="sans-serif" font-size="12" lengthAdjust="spacing" textLength="79" x="152" y="92.8008">ler(codPeca1)</text><rect fill="#FEFECE" filter="url(#f15wh41nmqr1ga)" height="34.1328" rx="12.5" ry="12.5" style="stroke:#A80036;stroke-width:1.5;" width="98" x="142.5" y="125.332"/><text fill="#000000" font-family="sans-serif" font-size="12" lengthAdjust="spacing" textLength="78" x="152.5" y="146.9336">ler(qtdPeca1)</text><rect fill="#FEFECE" filter="url(#f15wh41nmqr1ga)" height="34.1328" rx="12.5" ry="12.5" style="stroke:#A80036;stroke-width:1.5;" width="106" x="138.5" y="179.4648"/><text fill="#000000" font-family="sans-serif" font-size="12" lengthAdjust="spacing" textLength="86" x="148.5" y="201.0664">ler(valorPeca1)</text><rect fill="#FEFECE" filter="url(#f15wh41nmqr1ga)" height="34.1328" rx="12.5" ry="12.5" style="stroke:#A80036;stroke-width:1.5;" width="99" x="142" y="233.5977"/><text fill="#000000" font-family="sans-serif" font-size="12" lengthAdjust="spacing" textLength="79" x="152" y="255.1992">ler(codPeca2)</text><rect fill="#FEFECE" filter="url(#f15wh41nmqr1ga)" height="34.1328" rx="12.5" ry="12.5" style="stroke:#A80036;stroke-width:1.5;" width="98" x="142.5" y="287.7305"/><text fill="#000000" font-family="sans-serif" font-size="12" lengthAdjust="spacing" textLength="78" x="152.5" y="309.332">ler(qtdPeca2)</text><rect fill="#FEFECE" filter="url(#f15wh41nmqr1ga)" height="34.1328" rx="12.5" ry="12.5" style="stroke:#A80036;stroke-width:1.5;" width="106" x="138.5" y="341.8633"/><text fill="#000000" font-family="sans-serif" font-size="12" lengthAdjust="spacing" textLength="86" x="148.5" y="363.4648">ler(valorPeca2)</text><rect fill="#FEFECE" filter="url(#f15wh41nmqr1ga)" height="34.1328" rx="12.5" ry="12.5" style="stroke:#A80036;stroke-width:1.5;" width="361" x="11" y="395.9961"/><text fill="#000000" font-family="sans-serif" font-size="12" lengthAdjust="spacing" textLength="341" x="21" y="417.5977">total = (qtdPeca1 * valorPeca1) + (qtdPeca2 * valorPeca2)</text><rect fill="#FEFECE" filter="url(#f15wh41nmqr1ga)" height="34.1328" rx="12.5" ry="12.5" style="stroke:#A80036;stroke-width:1.5;" width="251" x="66" y="450.1289"/><text fill="#000000" font-family="sans-serif" font-size="12" lengthAdjust="spacing" textLength="231" x="76" y="471.7305">escrever("VALOR A PAGAR: R$ " + total)</text><ellipse cx="191.5" cy="515.2617" fill="#FFFFFF" filter="url(#f15wh41nmqr1ga)" rx="11" ry="11" style="stroke:#000000;stroke-width:1.0;"/><ellipse cx="191.5" cy="515.2617" fill="#000000" rx="6" ry="6" style="stroke:#7F7F7F;stroke-width:1.0;"/><line style="stroke:#A80036;stroke-width:1.5;" x1="191.5" x2="191.5" y1="51.1992" y2="71.1992"/><polygon fill="#A80036" points="187.5,61.1992,191.5,71.1992,195.5,61.1992,191.5,65.1992" style="stroke:#A80036;stroke-width:1.0;"/><line style="stroke:#A80036;stroke-width:1.5;" x1="191.5" x2="191.5" y1="105.332" y2="125.332"/><polygon fill="#A80036" points="187.5,115.332,191.5,125.332,195.5,115.332,191.5,119.332" style="stroke:#A80036;stroke-width:1.0;"/><line style="stroke:#A80036;stroke-width:1.5;" x1="191.5" x2="191.5" y1="159.4648" y2="179.4648"/><polygon fill="#A80036" points="187.5,169.4648,191.5,179.4648,195.5,169.4648,191.5,173.4648" style="stroke:#A80036;stroke-width:1.0;"/><line style="stroke:#A80036;stroke-width:1.5;" x1="191.5" x2="191.5" y1="213.5977" y2="233.5977"/><polygon fill="#A80036" points="187.5,223.5977,191.5,233.5977,195.5,223.5977,191.5,227.5977" style="stroke:#A80036;stroke-width:1.0;"/><line style="stroke:#A80036;stroke-width:1.5;" x1="191.5" x2="191.5" y1="267.7305" y2="287.7305"/><polygon fill="#A80036" points="187.5,277.7305,191.5,287.7305,195.5,277.7305,191.5,281.7305" style="stroke:#A80036;stroke-width:1.0;"/><line style="stroke:#A80036;stroke-width:1.5;" x1="191.5" x2="191.5" y1="321.8633" y2="341.8633"/><polygon fill="#A80036" points="187.5,331.8633,191.5,341.8633,195.5,331.8633,191.5,335.8633" style="stroke:#A80036;stroke-width:1.0;"/><line style="stroke:#A80036;stroke-width:1.5;" x1="191.5" x2="191.5" y1="375.9961" y2="395.9961"/><polygon fill="#A80036" points="187.5,385.9961,191.5,395.9961,195.5,385.9961,191.5,389.9961" style="stroke:#A80036;stroke-width:1.0;"/><line style="stroke:#A80036;stroke-width:1.5;" x1="191.5" x2="191.5" y1="430.1289" y2="450.1289"/><polygon fill="#A80036" points="187.5,440.1289,191.5,450.1289,195.5,440.1289,191.5,444.1289" style="stroke:#A80036;stroke-width:1.0;"/><line style="stroke:#A80036;stroke-width:1.5;" x1="191.5" x2="191.5" y1="484.2617" y2="504.2617"/><polygon fill="#A80036" points="187.5,494.2617,191.5,504.2617,195.5,494.2617,191.5,498.2617" style="stroke:#A80036;stroke-width:1.0;"/><!--MD5=[32e676aa7814f4a88c5d5140210e0987]
@startuml Uni3Uri1010
	title Uni3Uri1010
	start
	:ler(codPeca1);
	:ler(qtdPeca1);
	:ler(valorPeca1);
	:ler(codPeca2);
	:ler(qtdPeca2);
	:ler(valorPeca2);
	:total = (qtdPeca1 * valorPeca1) + (qtdPeca2 * valorPeca2);
	:escrever("VALOR A PAGAR: R$ " + total);
	stop
@enduml

PlantUML version 1.2021.14(Fri Nov 12 13:46:50 BRT 2021)
(GPL source distribution)
Java Runtime: OpenJDK Runtime Environment
JVM: OpenJDK 64-Bit Server VM
Default Encoding: UTF-8
Language: en
Country: BR
--></g></svg>