<?xml version="1.0" encoding="UTF-8" standalone="no"?><svg xmlns="http://www.w3.org/2000/svg" xmlns:xlink="http://www.w3.org/1999/xlink" contentScriptType="application/ecmascript" contentStyleType="text/css" height="976px" preserveAspectRatio="none" style="width:307px;height:976px;background:#FFFFFF;" version="1.1" viewBox="0 0 307 976" width="307px" zoomAndPan="magnify"><defs><filter height="300%" id="ff19jenrst1bh" width="300%" x="-1" y="-1"><feGaussianBlur result="blurOut" stdDeviation="2.0"/><feColorMatrix in="blurOut" result="blurOut2" type="matrix" values="0 0 0 0 0 0 0 0 0 0 0 0 0 0 0 0 0 0 .4 0"/><feOffset dx="4.0" dy="4.0" in="blurOut2" result="blurOut3"/><feBlend in="SourceGraphic" in2="blurOut3" mode="normal"/></filter></defs><g><text fill="#000000" font-family="sans-serif" font-size="18" lengthAdjust="spacing" textLength="107" x="99" y="27.4023">Uni3Uri1018</text><ellipse cx="150.5" cy="41.1992" fill="#000000" filter="url(#ff19jenrst1bh)" rx="10" ry="10" style="stroke:none;stroke-width:1.0;"/><rect fill="#FEFECE" filter="url(#ff19jenrst1bh)" height="34.1328" rx="12.5" ry="12.5" style="stroke:#A80036;stroke-width:1.5;" width="71" x="115" y="71.1992"/><text fill="#000000" font-family="sans-serif" font-size="12" lengthAdjust="spacing" textLength="51" x="125" y="92.8008">ler(valor)</text><rect fill="#FEFECE" filter="url(#ff19jenrst1bh)" height="34.1328" rx="12.5" ry="12.5" style="stroke:#A80036;stroke-width:1.5;" width="135" x="83" y="125.332"/><text fill="#000000" font-family="sans-serif" font-size="12" lengthAdjust="spacing" textLength="115" x="93" y="146.9336">n100 = (valor/100)</text><rect fill="#FEFECE" filter="url(#ff19jenrst1bh)" height="34.1328" rx="12.5" ry="12.5" style="stroke:#A80036;stroke-width:1.5;" width="151" x="75" y="179.4648"/><text fill="#000000" font-family="sans-serif" font-size="12" lengthAdjust="spacing" textLength="131" x="85" y="201.0664">n50 = (valor%100)/50</text><rect fill="#FEFECE" filter="url(#ff19jenrst1bh)" height="34.1328" rx="12.5" ry="12.5" style="stroke:#A80036;stroke-width:1.5;" width="183" x="59" y="233.5977"/><text fill="#000000" font-family="sans-serif" font-size="12" lengthAdjust="spacing" textLength="163" x="69" y="255.1992">n20 = ((valor%100)%50)/20</text><rect fill="#FEFECE" filter="url(#ff19jenrst1bh)" height="34.1328" rx="12.5" ry="12.5" style="stroke:#A80036;stroke-width:1.5;" width="215" x="43" y="287.7305"/><text fill="#000000" font-family="sans-serif" font-size="12" lengthAdjust="spacing" textLength="195" x="53" y="309.332">n10 = (((valor%100)%50)%20)/10</text><rect fill="#FEFECE" filter="url(#ff19jenrst1bh)" height="34.1328" rx="12.5" ry="12.5" style="stroke:#A80036;stroke-width:1.5;" width="231" x="35" y="341.8633"/><text fill="#000000" font-family="sans-serif" font-size="12" lengthAdjust="spacing" textLength="211" x="45" y="363.4648">n5 = ((((valor%100)%50)%20)%10)/5</text><rect fill="#FEFECE" filter="url(#ff19jenrst1bh)" height="34.1328" rx="12.5" ry="12.5" style="stroke:#A80036;stroke-width:1.5;" width="255" x="23" y="395.9961"/><text fill="#000000" font-family="sans-serif" font-size="12" lengthAdjust="spacing" textLength="235" x="33" y="417.5977">n2 = (((((valor%100)%50)%20)%10)%5)/2</text><rect fill="#FEFECE" filter="url(#ff19jenrst1bh)" height="34.1328" rx="12.5" ry="12.5" style="stroke:#A80036;stroke-width:1.5;" width="279" x="11" y="450.1289"/><text fill="#000000" font-family="sans-serif" font-size="12" lengthAdjust="spacing" textLength="259" x="21" y="471.7305">n1 = ((((((valor%100)%50)%20)%10)%5)%2)/1</text><rect fill="#FEFECE" filter="url(#ff19jenrst1bh)" height="34.1328" rx="12.5" ry="12.5" style="stroke:#A80036;stroke-width:1.5;" width="105" x="98" y="504.2617"/><text fill="#000000" font-family="sans-serif" font-size="12" lengthAdjust="spacing" textLength="85" x="108" y="525.8633">escrever(valor)</text><rect fill="#FEFECE" filter="url(#ff19jenrst1bh)" height="34.1328" rx="12.5" ry="12.5" style="stroke:#A80036;stroke-width:1.5;" width="264" x="18.5" y="558.3945"/><text fill="#000000" font-family="sans-serif" font-size="12" lengthAdjust="spacing" textLength="244" x="28.5" y="579.9961">escrever(n100 + " nota(s) de R$ 100,00")</text><rect fill="#FEFECE" filter="url(#ff19jenrst1bh)" height="34.1328" rx="12.5" ry="12.5" style="stroke:#A80036;stroke-width:1.5;" width="244" x="28.5" y="612.5273"/><text fill="#000000" font-family="sans-serif" font-size="12" lengthAdjust="spacing" textLength="224" x="38.5" y="634.1289">escrever(n50+ " nota(s) de R$ 50,00")</text><rect fill="#FEFECE" filter="url(#ff19jenrst1bh)" height="34.1328" rx="12.5" ry="12.5" style="stroke:#A80036;stroke-width:1.5;" width="244" x="28.5" y="666.6602"/><text fill="#000000" font-family="sans-serif" font-size="12" lengthAdjust="spacing" textLength="224" x="38.5" y="688.2617">escrever(n20+ " nota(s) de R$ 20,00")</text><rect fill="#FEFECE" filter="url(#ff19jenrst1bh)" height="34.1328" rx="12.5" ry="12.5" style="stroke:#A80036;stroke-width:1.5;" width="244" x="28.5" y="720.793"/><text fill="#000000" font-family="sans-serif" font-size="12" lengthAdjust="spacing" textLength="224" x="38.5" y="742.3945">escrever(n10+ " nota(s) de R$ 10,00")</text><rect fill="#FEFECE" filter="url(#ff19jenrst1bh)" height="34.1328" rx="12.5" ry="12.5" style="stroke:#A80036;stroke-width:1.5;" width="228" x="36.5" y="774.9258"/><text fill="#000000" font-family="sans-serif" font-size="12" lengthAdjust="spacing" textLength="208" x="46.5" y="796.5273">escrever(n5+ " nota(s) de R$ 5,00")</text><rect fill="#FEFECE" filter="url(#ff19jenrst1bh)" height="34.1328" rx="12.5" ry="12.5" style="stroke:#A80036;stroke-width:1.5;" width="228" x="36.5" y="829.0586"/><text fill="#000000" font-family="sans-serif" font-size="12" lengthAdjust="spacing" textLength="208" x="46.5" y="850.6602">escrever(n2+ " nota(s) de R$ 2,00")</text><rect fill="#FEFECE" filter="url(#ff19jenrst1bh)" height="34.1328" rx="12.5" ry="12.5" style="stroke:#A80036;stroke-width:1.5;" width="228" x="36.5" y="883.1914"/><text fill="#000000" font-family="sans-serif" font-size="12" lengthAdjust="spacing" textLength="208" x="46.5" y="904.793">escrever(n1+ " nota(s) de R$ 1,00")</text><ellipse cx="150.5" cy="948.3242" fill="#FFFFFF" filter="url(#ff19jenrst1bh)" rx="11" ry="11" style="stroke:#000000;stroke-width:1.0;"/><ellipse cx="150.5" cy="948.3242" fill="#000000" rx="6" ry="6" style="stroke:#7F7F7F;stroke-width:1.0;"/><line style="stroke:#A80036;stroke-width:1.5;" x1="150.5" x2="150.5" y1="51.1992" y2="71.1992"/><polygon fill="#A80036" points="146.5,61.1992,150.5,71.1992,154.5,61.1992,150.5,65.1992" style="stroke:#A80036;stroke-width:1.0;"/><line style="stroke:#A80036;stroke-width:1.5;" x1="150.5" x2="150.5" y1="105.332" y2="125.332"/><polygon fill="#A80036" points="146.5,115.332,150.5,125.332,154.5,115.332,150.5,119.332" style="stroke:#A80036;stroke-width:1.0;"/><line style="stroke:#A80036;stroke-width:1.5;" x1="150.5" x2="150.5" y1="159.4648" y2="179.4648"/><polygon fill="#A80036" points="146.5,169.4648,150.5,179.4648,154.5,169.4648,150.5,173.4648" style="stroke:#A80036;stroke-width:1.0;"/><line style="stroke:#A80036;stroke-width:1.5;" x1="150.5" x2="150.5" y1="213.5977" y2="233.5977"/><polygon fill="#A80036" points="146.5,223.5977,150.5,233.5977,154.5,223.5977,150.5,227.5977" style="stroke:#A80036;stroke-width:1.0;"/><line style="stroke:#A80036;stroke-width:1.5;" x1="150.5" x2="150.5" y1="267.7305" y2="287.7305"/><polygon fill="#A80036" points="146.5,277.7305,150.5,287.7305,154.5,277.7305,150.5,281.7305" style="stroke:#A80036;stroke-width:1.0;"/><line style="stroke:#A80036;stroke-width:1.5;" x1="150.5" x2="150.5" y1="321.8633" y2="341.8633"/><polygon fill="#A80036" points="146.5,331.8633,150.5,341.8633,154.5,331.8633,150.5,335.8633" style="stroke:#A80036;stroke-width:1.0;"/><line style="stroke:#A80036;stroke-width:1.5;" x1="150.5" x2="150.5" y1="375.9961" y2="395.9961"/><polygon fill="#A80036" points="146.5,385.9961,150.5,395.9961,154.5,385.9961,150.5,389.9961" style="stroke:#A80036;stroke-width:1.0;"/><line style="stroke:#A80036;stroke-width:1.5;" x1="150.5" x2="150.5" y1="430.1289" y2="450.1289"/><polygon fill="#A80036" points="146.5,440.1289,150.5,450.1289,154.5,440.1289,150.5,444.1289" style="stroke:#A80036;stroke-width:1.0;"/><line style="stroke:#A80036;stroke-width:1.5;" x1="150.5" x2="150.5" y1="484.2617" y2="504.2617"/><polygon fill="#A80036" points="146.5,494.2617,150.5,504.2617,154.5,494.2617,150.5,498.2617" style="stroke:#A80036;stroke-width:1.0;"/><line style="stroke:#A80036;stroke-width:1.5;" x1="150.5" x2="150.5" y1="538.3945" y2="558.3945"/><polygon fill="#A80036" points="146.5,548.3945,150.5,558.3945,154.5,548.3945,150.5,552.3945" style="stroke:#A80036;stroke-width:1.0;"/><line style="stroke:#A80036;stroke-width:1.5;" x1="150.5" x2="150.5" y1="592.5273" y2="612.5273"/><polygon fill="#A80036" points="146.5,602.5273,150.5,612.5273,154.5,602.5273,150.5,606.5273" style="stroke:#A80036;stroke-width:1.0;"/><line style="stroke:#A80036;stroke-width:1.5;" x1="150.5" x2="150.5" y1="646.6602" y2="666.6602"/><polygon fill="#A80036" points="146.5,656.6602,150.5,666.6602,154.5,656.6602,150.5,660.6602" style="stroke:#A80036;stroke-width:1.0;"/><line style="stroke:#A80036;stroke-width:1.5;" x1="150.5" x2="150.5" y1="700.793" y2="720.793"/><polygon fill="#A80036" points="146.5,710.793,150.5,720.793,154.5,710.793,150.5,714.793" style="stroke:#A80036;stroke-width:1.0;"/><line style="stroke:#A80036;stroke-width:1.5;" x1="150.5" x2="150.5" y1="754.9258" y2="774.9258"/><polygon fill="#A80036" points="146.5,764.9258,150.5,774.9258,154.5,764.9258,150.5,768.9258" style="stroke:#A80036;stroke-width:1.0;"/><line style="stroke:#A80036;stroke-width:1.5;" x1="150.5" x2="150.5" y1="809.0586" y2="829.0586"/><polygon fill="#A80036" points="146.5,819.0586,150.5,829.0586,154.5,819.0586,150.5,823.0586" style="stroke:#A80036;stroke-width:1.0;"/><line style="stroke:#A80036;stroke-width:1.5;" x1="150.5" x2="150.5" y1="863.1914" y2="883.1914"/><polygon fill="#A80036" points="146.5,873.1914,150.5,883.1914,154.5,873.1914,150.5,877.1914" style="stroke:#A80036;stroke-width:1.0;"/><line style="stroke:#A80036;stroke-width:1.5;" x1="150.5" x2="150.5" y1="917.3242" y2="937.3242"/><polygon fill="#A80036" points="146.5,927.3242,150.5,937.3242,154.5,927.3242,150.5,931.3242" style="stroke:#A80036;stroke-width:1.0;"/><!--MD5=[4c26b46b30df520c19e6fe896cb1f5ff]
@startuml Uni3Uri1018
	title Uni3Uri1018
	start
	:ler(valor);
	:n100 = (valor/100);
	:n50 = (valor%100)/50;
	:n20 = ((valor%100)%50)/20;
	:n10 = (((valor%100)%50)%20)/10;
	:n5 = ((((valor%100)%50)%20)%10)/5;
	:n2 = (((((valor%100)%50)%20)%10)%5)/2;
	:n1 = ((((((valor%100)%50)%20)%10)%5)%2)/1;
	:escrever(valor);
	:escrever(n100 + " nota(s) de R$ 100,00");
	:escrever(n50+ " nota(s) de R$ 50,00");
	:escrever(n20+ " nota(s) de R$ 20,00");
	:escrever(n10+ " nota(s) de R$ 10,00");
	:escrever(n5+ " nota(s) de R$ 5,00");
	:escrever(n2+ " nota(s) de R$ 2,00");
	:escrever(n1+ " nota(s) de R$ 1,00");
	stop
@enduml

PlantUML version 1.2021.14(Fri Nov 12 13:46:50 BRT 2021)
(GPL source distribution)
Java Runtime: OpenJDK Runtime Environment
JVM: OpenJDK 64-Bit Server VM
Default Encoding: UTF-8
Language: en
Country: BR
--></g></svg>