<?xml version="1.0" encoding="UTF-8" standalone="no"?><svg xmlns="http://www.w3.org/2000/svg" xmlns:xlink="http://www.w3.org/1999/xlink" contentScriptType="application/ecmascript" contentStyleType="text/css" height="627px" preserveAspectRatio="none" style="width:1000px;height:627px;background:#FFFFFF;" version="1.1" viewBox="0 0 1000 627" width="1000px" zoomAndPan="magnify"><defs><filter height="300%" id="f1rq4ick23z8ob" width="300%" x="-1" y="-1"><feGaussianBlur result="blurOut" stdDeviation="2.0"/><feColorMatrix in="blurOut" result="blurOut2" type="matrix" values="0 0 0 0 0 0 0 0 0 0 0 0 0 0 0 0 0 0 .4 0"/><feOffset dx="4.0" dy="4.0" in="blurOut2" result="blurOut3"/><feBlend in="SourceGraphic" in2="blurOut3" mode="normal"/></filter></defs><g><ellipse cx="413.5" cy="20" fill="#000000" filter="url(#f1rq4ick23z8ob)" rx="10" ry="10" style="stroke:none;stroke-width:1.0;"/><rect fill="#FEFECE" filter="url(#f1rq4ick23z8ob)" height="62.3984" rx="12.5" ry="12.5" style="stroke:#A80036;stroke-width:1.5;" width="79" x="374" y="50"/><text fill="#000000" font-family="sans-serif" font-size="12" lengthAdjust="spacing" textLength="59" x="384" y="71.6016">ler(valor1)</text><text fill="#000000" font-family="sans-serif" font-size="12" lengthAdjust="spacing" textLength="59" x="384" y="85.7344">ler(valor2)</text><text fill="#000000" font-family="sans-serif" font-size="12" lengthAdjust="spacing" textLength="59" x="384" y="99.8672">ler(valor3)</text><rect fill="#FEFECE" filter="url(#f1rq4ick23z8ob)" height="62.3984" rx="12.5" ry="12.5" style="stroke:#A80036;stroke-width:1.5;" width="84" x="371.5" y="132.3984"/><text fill="#000000" font-family="sans-serif" font-size="12" lengthAdjust="spacing" textLength="64" x="381.5" y="154">valorMenor</text><text fill="#000000" font-family="sans-serif" font-size="12" lengthAdjust="spacing" textLength="63" x="381.5" y="168.1328">valorMedio</text><text fill="#000000" font-family="sans-serif" font-size="12" lengthAdjust="spacing" textLength="60" x="381.5" y="182.2656">valorMaior</text><polygon fill="#FEFECE" filter="url(#f1rq4ick23z8ob)" points="307,214.7969,520,214.7969,532,226.7969,520,238.7969,307,238.7969,295,226.7969,307,214.7969" style="stroke:#A80036;stroke-width:1.5;"/><text fill="#000000" font-family="sans-serif" font-size="11" lengthAdjust="spacing" textLength="100" x="307" y="230.9541">(valor1 &lt;= valor2)</text><text fill="#000000" font-family="sans-serif" font-size="11" font-weight="bold" lengthAdjust="spacing" textLength="7" x="410" y="230.9541">E</text><text fill="#000000" font-family="sans-serif" font-size="11" lengthAdjust="spacing" textLength="100" x="420" y="230.9541">(valor1 &lt;= valor3)</text><text fill="#000000" font-family="sans-serif" font-size="11" lengthAdjust="spacing" textLength="19" x="276" y="224.4766">sim</text><text fill="#000000" font-family="sans-serif" font-size="11" lengthAdjust="spacing" textLength="20" x="532" y="224.4766">não</text><rect fill="#FEFECE" filter="url(#f1rq4ick23z8ob)" height="34.1328" rx="12.5" ry="12.5" style="stroke:#A80036;stroke-width:1.5;" width="138" x="89" y="248.7969"/><text fill="#000000" font-family="sans-serif" font-size="12" lengthAdjust="spacing" textLength="118" x="99" y="270.3984">valorMenor = valor1</text><polygon fill="#FEFECE" filter="url(#f1rq4ick23z8ob)" points="112,317.9297,204,317.9297,216,329.9297,204,341.9297,112,341.9297,100,329.9297,112,317.9297" style="stroke:#A80036;stroke-width:1.5;"/><text fill="#000000" font-family="sans-serif" font-size="11" lengthAdjust="spacing" textLength="92" x="112" y="334.0869">valor2 &lt;= valor3</text><text fill="#000000" font-family="sans-serif" font-size="11" lengthAdjust="spacing" textLength="19" x="81" y="327.6094">sim</text><text fill="#000000" font-family="sans-serif" font-size="11" lengthAdjust="spacing" textLength="20" x="216" y="327.6094">não</text><rect fill="#FEFECE" filter="url(#f1rq4ick23z8ob)" height="48.2656" rx="12.5" ry="12.5" style="stroke:#A80036;stroke-width:1.5;" width="137" x="11" y="351.9297"/><text fill="#000000" font-family="sans-serif" font-size="12" lengthAdjust="spacing" textLength="117" x="21" y="373.5313">valorMedio = valor2</text><text fill="#000000" font-family="sans-serif" font-size="12" lengthAdjust="spacing" textLength="114" x="21" y="387.6641">valorMaior = valor3</text><rect fill="#FEFECE" filter="url(#f1rq4ick23z8ob)" height="48.2656" rx="12.5" ry="12.5" style="stroke:#A80036;stroke-width:1.5;" width="137" x="168" y="351.9297"/><text fill="#000000" font-family="sans-serif" font-size="12" lengthAdjust="spacing" textLength="117" x="178" y="373.5313">valorMedio = valor3</text><text fill="#000000" font-family="sans-serif" font-size="12" lengthAdjust="spacing" textLength="114" x="178" y="387.6641">valorMaior = valor2</text><polygon fill="#FEFECE" filter="url(#f1rq4ick23z8ob)" points="158,406.1953,170,418.1953,158,430.1953,146,418.1953,158,406.1953" style="stroke:#A80036;stroke-width:1.5;"/><polygon fill="#FEFECE" filter="url(#f1rq4ick23z8ob)" points="562.5,248.7969,775.5,248.7969,787.5,260.7969,775.5,272.7969,562.5,272.7969,550.5,260.7969,562.5,248.7969" style="stroke:#A80036;stroke-width:1.5;"/><text fill="#000000" font-family="sans-serif" font-size="11" lengthAdjust="spacing" textLength="100" x="562.5" y="264.9541">(valor2 &lt;= valor1)</text><text fill="#000000" font-family="sans-serif" font-size="11" font-weight="bold" lengthAdjust="spacing" textLength="7" x="665.5" y="264.9541">E</text><text fill="#000000" font-family="sans-serif" font-size="11" lengthAdjust="spacing" textLength="100" x="675.5" y="264.9541">(valor2 &lt;= valor3)</text><text fill="#000000" font-family="sans-serif" font-size="11" lengthAdjust="spacing" textLength="19" x="531.5" y="258.4766">sim</text><text fill="#000000" font-family="sans-serif" font-size="11" lengthAdjust="spacing" textLength="20" x="787.5" y="258.4766">não</text><rect fill="#FEFECE" filter="url(#f1rq4ick23z8ob)" height="34.1328" rx="12.5" ry="12.5" style="stroke:#A80036;stroke-width:1.5;" width="138" x="433" y="282.7969"/><text fill="#000000" font-family="sans-serif" font-size="12" lengthAdjust="spacing" textLength="118" x="443" y="304.3984">valorMenor = valor2</text><polygon fill="#FEFECE" filter="url(#f1rq4ick23z8ob)" points="456,351.9297,548,351.9297,560,363.9297,548,375.9297,456,375.9297,444,363.9297,456,351.9297" style="stroke:#A80036;stroke-width:1.5;"/><text fill="#000000" font-family="sans-serif" font-size="11" lengthAdjust="spacing" textLength="92" x="456" y="368.0869">valor1 &lt;= valor3</text><text fill="#000000" font-family="sans-serif" font-size="11" lengthAdjust="spacing" textLength="19" x="425" y="361.6094">sim</text><text fill="#000000" font-family="sans-serif" font-size="11" lengthAdjust="spacing" textLength="20" x="560" y="361.6094">não</text><rect fill="#FEFECE" filter="url(#f1rq4ick23z8ob)" height="48.2656" rx="12.5" ry="12.5" style="stroke:#A80036;stroke-width:1.5;" width="137" x="355" y="385.9297"/><text fill="#000000" font-family="sans-serif" font-size="12" lengthAdjust="spacing" textLength="117" x="365" y="407.5313">valorMedio = valor1</text><text fill="#000000" font-family="sans-serif" font-size="12" lengthAdjust="spacing" textLength="114" x="365" y="421.6641">valorMaior = valor3</text><rect fill="#FEFECE" filter="url(#f1rq4ick23z8ob)" height="48.2656" rx="12.5" ry="12.5" style="stroke:#A80036;stroke-width:1.5;" width="137" x="512" y="385.9297"/><text fill="#000000" font-family="sans-serif" font-size="12" lengthAdjust="spacing" textLength="117" x="522" y="407.5313">valorMedio = valor3</text><text fill="#000000" font-family="sans-serif" font-size="12" lengthAdjust="spacing" textLength="114" x="522" y="421.6641">valorMaior = valor1</text><polygon fill="#FEFECE" filter="url(#f1rq4ick23z8ob)" points="502,440.1953,514,452.1953,502,464.1953,490,452.1953,502,440.1953" style="stroke:#A80036;stroke-width:1.5;"/><rect fill="#FEFECE" filter="url(#f1rq4ick23z8ob)" height="34.1328" rx="12.5" ry="12.5" style="stroke:#A80036;stroke-width:1.5;" width="138" x="767" y="282.7969"/><text fill="#000000" font-family="sans-serif" font-size="12" lengthAdjust="spacing" textLength="118" x="777" y="304.3984">valorMenor = valor3</text><polygon fill="#FEFECE" filter="url(#f1rq4ick23z8ob)" points="790,351.9297,882,351.9297,894,363.9297,882,375.9297,790,375.9297,778,363.9297,790,351.9297" style="stroke:#A80036;stroke-width:1.5;"/><text fill="#000000" font-family="sans-serif" font-size="11" lengthAdjust="spacing" textLength="92" x="790" y="368.0869">valor1 &lt;= valor2</text><text fill="#000000" font-family="sans-serif" font-size="11" lengthAdjust="spacing" textLength="19" x="759" y="361.6094">sim</text><text fill="#000000" font-family="sans-serif" font-size="11" lengthAdjust="spacing" textLength="20" x="894" y="361.6094">não</text><rect fill="#FEFECE" filter="url(#f1rq4ick23z8ob)" height="48.2656" rx="12.5" ry="12.5" style="stroke:#A80036;stroke-width:1.5;" width="137" x="689" y="385.9297"/><text fill="#000000" font-family="sans-serif" font-size="12" lengthAdjust="spacing" textLength="117" x="699" y="407.5313">valorMedio = valor1</text><text fill="#000000" font-family="sans-serif" font-size="12" lengthAdjust="spacing" textLength="114" x="699" y="421.6641">valorMaior = valor2</text><rect fill="#FEFECE" filter="url(#f1rq4ick23z8ob)" height="48.2656" rx="12.5" ry="12.5" style="stroke:#A80036;stroke-width:1.5;" width="137" x="846" y="385.9297"/><text fill="#000000" font-family="sans-serif" font-size="12" lengthAdjust="spacing" textLength="117" x="856" y="407.5313">valorMedio = valor2</text><text fill="#000000" font-family="sans-serif" font-size="12" lengthAdjust="spacing" textLength="114" x="856" y="421.6641">valorMaior = valor1</text><polygon fill="#FEFECE" filter="url(#f1rq4ick23z8ob)" points="836,440.1953,848,452.1953,836,464.1953,824,452.1953,836,440.1953" style="stroke:#A80036;stroke-width:1.5;"/><polygon fill="#FEFECE" filter="url(#f1rq4ick23z8ob)" points="669,470.1953,681,482.1953,669,494.1953,657,482.1953,669,470.1953" style="stroke:#A80036;stroke-width:1.5;"/><polygon fill="#FEFECE" filter="url(#f1rq4ick23z8ob)" points="413.5,500.1953,425.5,512.1953,413.5,524.1953,401.5,512.1953,413.5,500.1953" style="stroke:#A80036;stroke-width:1.5;"/><ellipse cx="413.5" cy="555.1953" fill="#FFFFFF" filter="url(#f1rq4ick23z8ob)" rx="11" ry="11" style="stroke:#000000;stroke-width:1.0;"/><ellipse cx="413.5" cy="555.1953" fill="#000000" rx="6" ry="6" style="stroke:#7F7F7F;stroke-width:1.0;"/><rect fill="#FEFECE" filter="url(#f1rq4ick23z8ob)" height="34.1328" rx="12.5" ry="12.5" style="stroke:#A80036;stroke-width:1.5;" width="498" x="164.5" y="576.1953"/><text fill="#000000" font-family="sans-serif" font-size="12" lengthAdjust="spacing" textLength="478" x="174.5" y="597.7969">escrever("menor: "+valorMenor+" - medio: "+valorMedio+" - maior: "+valorMaior)</text><line style="stroke:#A80036;stroke-width:1.5;" x1="413.5" x2="413.5" y1="30" y2="50"/><polygon fill="#A80036" points="409.5,40,413.5,50,417.5,40,413.5,44" style="stroke:#A80036;stroke-width:1.0;"/><line style="stroke:#A80036;stroke-width:1.5;" x1="413.5" x2="413.5" y1="112.3984" y2="132.3984"/><polygon fill="#A80036" points="409.5,122.3984,413.5,132.3984,417.5,122.3984,413.5,126.3984" style="stroke:#A80036;stroke-width:1.0;"/><line style="stroke:#A80036;stroke-width:1.5;" x1="100" x2="79.5" y1="329.9297" y2="329.9297"/><line style="stroke:#A80036;stroke-width:1.5;" x1="79.5" x2="79.5" y1="329.9297" y2="351.9297"/><polygon fill="#A80036" points="75.5,341.9297,79.5,351.9297,83.5,341.9297,79.5,345.9297" style="stroke:#A80036;stroke-width:1.0;"/><line style="stroke:#A80036;stroke-width:1.5;" x1="216" x2="236.5" y1="329.9297" y2="329.9297"/><line style="stroke:#A80036;stroke-width:1.5;" x1="236.5" x2="236.5" y1="329.9297" y2="351.9297"/><polygon fill="#A80036" points="232.5,341.9297,236.5,351.9297,240.5,341.9297,236.5,345.9297" style="stroke:#A80036;stroke-width:1.0;"/><line style="stroke:#A80036;stroke-width:1.5;" x1="79.5" x2="79.5" y1="400.1953" y2="418.1953"/><line style="stroke:#A80036;stroke-width:1.5;" x1="79.5" x2="146" y1="418.1953" y2="418.1953"/><polygon fill="#A80036" points="136,414.1953,146,418.1953,136,422.1953,140,418.1953" style="stroke:#A80036;stroke-width:1.0;"/><line style="stroke:#A80036;stroke-width:1.5;" x1="236.5" x2="236.5" y1="400.1953" y2="418.1953"/><line style="stroke:#A80036;stroke-width:1.5;" x1="236.5" x2="170" y1="418.1953" y2="418.1953"/><polygon fill="#A80036" points="180,414.1953,170,418.1953,180,422.1953,176,418.1953" style="stroke:#A80036;stroke-width:1.0;"/><line style="stroke:#A80036;stroke-width:1.5;" x1="158" x2="158" y1="282.9297" y2="317.9297"/><polygon fill="#A80036" points="154,307.9297,158,317.9297,162,307.9297,158,311.9297" style="stroke:#A80036;stroke-width:1.0;"/><line style="stroke:#A80036;stroke-width:1.5;" x1="444" x2="423.5" y1="363.9297" y2="363.9297"/><line style="stroke:#A80036;stroke-width:1.5;" x1="423.5" x2="423.5" y1="363.9297" y2="385.9297"/><polygon fill="#A80036" points="419.5,375.9297,423.5,385.9297,427.5,375.9297,423.5,379.9297" style="stroke:#A80036;stroke-width:1.0;"/><line style="stroke:#A80036;stroke-width:1.5;" x1="560" x2="580.5" y1="363.9297" y2="363.9297"/><line style="stroke:#A80036;stroke-width:1.5;" x1="580.5" x2="580.5" y1="363.9297" y2="385.9297"/><polygon fill="#A80036" points="576.5,375.9297,580.5,385.9297,584.5,375.9297,580.5,379.9297" style="stroke:#A80036;stroke-width:1.0;"/><line style="stroke:#A80036;stroke-width:1.5;" x1="423.5" x2="423.5" y1="434.1953" y2="452.1953"/><line style="stroke:#A80036;stroke-width:1.5;" x1="423.5" x2="490" y1="452.1953" y2="452.1953"/><polygon fill="#A80036" points="480,448.1953,490,452.1953,480,456.1953,484,452.1953" style="stroke:#A80036;stroke-width:1.0;"/><line style="stroke:#A80036;stroke-width:1.5;" x1="580.5" x2="580.5" y1="434.1953" y2="452.1953"/><line style="stroke:#A80036;stroke-width:1.5;" x1="580.5" x2="514" y1="452.1953" y2="452.1953"/><polygon fill="#A80036" points="524,448.1953,514,452.1953,524,456.1953,520,452.1953" style="stroke:#A80036;stroke-width:1.0;"/><line style="stroke:#A80036;stroke-width:1.5;" x1="502" x2="502" y1="316.9297" y2="351.9297"/><polygon fill="#A80036" points="498,341.9297,502,351.9297,506,341.9297,502,345.9297" style="stroke:#A80036;stroke-width:1.0;"/><line style="stroke:#A80036;stroke-width:1.5;" x1="778" x2="757.5" y1="363.9297" y2="363.9297"/><line style="stroke:#A80036;stroke-width:1.5;" x1="757.5" x2="757.5" y1="363.9297" y2="385.9297"/><polygon fill="#A80036" points="753.5,375.9297,757.5,385.9297,761.5,375.9297,757.5,379.9297" style="stroke:#A80036;stroke-width:1.0;"/><line style="stroke:#A80036;stroke-width:1.5;" x1="894" x2="914.5" y1="363.9297" y2="363.9297"/><line style="stroke:#A80036;stroke-width:1.5;" x1="914.5" x2="914.5" y1="363.9297" y2="385.9297"/><polygon fill="#A80036" points="910.5,375.9297,914.5,385.9297,918.5,375.9297,914.5,379.9297" style="stroke:#A80036;stroke-width:1.0;"/><line style="stroke:#A80036;stroke-width:1.5;" x1="757.5" x2="757.5" y1="434.1953" y2="452.1953"/><line style="stroke:#A80036;stroke-width:1.5;" x1="757.5" x2="824" y1="452.1953" y2="452.1953"/><polygon fill="#A80036" points="814,448.1953,824,452.1953,814,456.1953,818,452.1953" style="stroke:#A80036;stroke-width:1.0;"/><line style="stroke:#A80036;stroke-width:1.5;" x1="914.5" x2="914.5" y1="434.1953" y2="452.1953"/><line style="stroke:#A80036;stroke-width:1.5;" x1="914.5" x2="848" y1="452.1953" y2="452.1953"/><polygon fill="#A80036" points="858,448.1953,848,452.1953,858,456.1953,854,452.1953" style="stroke:#A80036;stroke-width:1.0;"/><line style="stroke:#A80036;stroke-width:1.5;" x1="836" x2="836" y1="316.9297" y2="351.9297"/><polygon fill="#A80036" points="832,341.9297,836,351.9297,840,341.9297,836,345.9297" style="stroke:#A80036;stroke-width:1.0;"/><line style="stroke:#A80036;stroke-width:1.5;" x1="550.5" x2="502" y1="260.7969" y2="260.7969"/><line style="stroke:#A80036;stroke-width:1.5;" x1="502" x2="502" y1="260.7969" y2="282.7969"/><polygon fill="#A80036" points="498,272.7969,502,282.7969,506,272.7969,502,276.7969" style="stroke:#A80036;stroke-width:1.0;"/><line style="stroke:#A80036;stroke-width:1.5;" x1="787.5" x2="836" y1="260.7969" y2="260.7969"/><line style="stroke:#A80036;stroke-width:1.5;" x1="836" x2="836" y1="260.7969" y2="282.7969"/><polygon fill="#A80036" points="832,272.7969,836,282.7969,840,272.7969,836,276.7969" style="stroke:#A80036;stroke-width:1.0;"/><line style="stroke:#A80036;stroke-width:1.5;" x1="502" x2="502" y1="464.1953" y2="482.1953"/><line style="stroke:#A80036;stroke-width:1.5;" x1="502" x2="657" y1="482.1953" y2="482.1953"/><polygon fill="#A80036" points="647,478.1953,657,482.1953,647,486.1953,651,482.1953" style="stroke:#A80036;stroke-width:1.0;"/><line style="stroke:#A80036;stroke-width:1.5;" x1="836" x2="836" y1="464.1953" y2="482.1953"/><line style="stroke:#A80036;stroke-width:1.5;" x1="836" x2="681" y1="482.1953" y2="482.1953"/><polygon fill="#A80036" points="691,478.1953,681,482.1953,691,486.1953,687,482.1953" style="stroke:#A80036;stroke-width:1.0;"/><line style="stroke:#A80036;stroke-width:1.5;" x1="295" x2="158" y1="226.7969" y2="226.7969"/><line style="stroke:#A80036;stroke-width:1.5;" x1="158" x2="158" y1="226.7969" y2="248.7969"/><polygon fill="#A80036" points="154,238.7969,158,248.7969,162,238.7969,158,242.7969" style="stroke:#A80036;stroke-width:1.0;"/><line style="stroke:#A80036;stroke-width:1.5;" x1="532" x2="669" y1="226.7969" y2="226.7969"/><line style="stroke:#A80036;stroke-width:1.5;" x1="669" x2="669" y1="226.7969" y2="248.7969"/><polygon fill="#A80036" points="665,238.7969,669,248.7969,673,238.7969,669,242.7969" style="stroke:#A80036;stroke-width:1.0;"/><line style="stroke:#A80036;stroke-width:1.5;" x1="158" x2="158" y1="430.1953" y2="512.1953"/><line style="stroke:#A80036;stroke-width:1.5;" x1="158" x2="401.5" y1="512.1953" y2="512.1953"/><polygon fill="#A80036" points="391.5,508.1953,401.5,512.1953,391.5,516.1953,395.5,512.1953" style="stroke:#A80036;stroke-width:1.0;"/><line style="stroke:#A80036;stroke-width:1.5;" x1="669" x2="669" y1="494.1953" y2="512.1953"/><line style="stroke:#A80036;stroke-width:1.5;" x1="669" x2="425.5" y1="512.1953" y2="512.1953"/><polygon fill="#A80036" points="435.5,508.1953,425.5,512.1953,435.5,516.1953,431.5,512.1953" style="stroke:#A80036;stroke-width:1.0;"/><line style="stroke:#A80036;stroke-width:1.5;" x1="413.5" x2="413.5" y1="194.7969" y2="214.7969"/><polygon fill="#A80036" points="409.5,204.7969,413.5,214.7969,417.5,204.7969,413.5,208.7969" style="stroke:#A80036;stroke-width:1.0;"/><line style="stroke:#A80036;stroke-width:1.5;" x1="413.5" x2="413.5" y1="524.1953" y2="544.1953"/><polygon fill="#A80036" points="409.5,534.1953,413.5,544.1953,417.5,534.1953,413.5,538.1953" style="stroke:#A80036;stroke-width:1.0;"/><!--MD5=[a93fee2461ef3b4d82723ce6765b5b61]
@startuml ExemploOrdenarTresValores
	start
		:ler(valor1)
		ler(valor2)
		ler(valor3);
		:valorMenor
		valorMedio
		valorMaior;
		if ((valor1 <= valor2) **E** (valor1 <= valor3)) then (sim)
			:valorMenor = valor1;
			if (valor2 <= valor3) then (sim)
				:valorMedio = valor2
				valorMaior = valor3;
			else (não)
				:valorMedio = valor3
				valorMaior = valor2;
			endif
 		else (não)
			if ((valor2 <= valor1) **E** (valor2 <= valor3)) then (sim)
 				:valorMenor = valor2;
				if (valor1 <= valor3) then (sim)
					:valorMedio = valor1
					valorMaior = valor3;
				else (não)
					:valorMedio = valor3
					valorMaior = valor1;
				endif
 			else (não)
 				:valorMenor = valor3;
				if (valor1 <= valor2) then (sim)
					:valorMedio = valor1
					valorMaior = valor2;
				else (não)
					:valorMedio = valor2
					valorMaior = valor1;
				endif
 			endif
 		endif
	 stop
	:escrever("menor: "+valorMenor+" - medio: "+valorMedio+" - maior: "+valorMaior);
@enduml

PlantUML version 1.2021.14(Fri Nov 12 13:46:50 BRT 2021)
(GPL source distribution)
Java Runtime: OpenJDK Runtime Environment
JVM: OpenJDK 64-Bit Server VM
Default Encoding: UTF-8
Language: en
Country: BR
--></g></svg>