<?xml version="1.0" encoding="UTF-8" standalone="no"?><svg xmlns="http://www.w3.org/2000/svg" xmlns:xlink="http://www.w3.org/1999/xlink" contentScriptType="application/ecmascript" contentStyleType="text/css" height="451px" preserveAspectRatio="none" style="width:591px;height:451px;background:#FFFFFF;" version="1.1" viewBox="0 0 591 451" width="591px" zoomAndPan="magnify"><defs><filter height="300%" id="f1w55pqm1hblh5" width="300%" x="-1" y="-1"><feGaussianBlur result="blurOut" stdDeviation="2.0"/><feColorMatrix in="blurOut" result="blurOut2" type="matrix" values="0 0 0 0 0 0 0 0 0 0 0 0 0 0 0 0 0 0 .4 0"/><feOffset dx="4.0" dy="4.0" in="blurOut2" result="blurOut3"/><feBlend in="SourceGraphic" in2="blurOut3" mode="normal"/></filter></defs><g><ellipse cx="228.25" cy="20" fill="#000000" filter="url(#f1w55pqm1hblh5)" rx="10" ry="10" style="stroke:none;stroke-width:1.0;"/><rect fill="#FEFECE" filter="url(#f1w55pqm1hblh5)" height="62.3984" rx="12.5" ry="12.5" style="stroke:#A80036;stroke-width:1.5;" width="79" x="188.75" y="50"/><text fill="#000000" font-family="sans-serif" font-size="12" lengthAdjust="spacing" textLength="59" x="198.75" y="71.6016">ler(valor1)</text><text fill="#000000" font-family="sans-serif" font-size="12" lengthAdjust="spacing" textLength="59" x="198.75" y="85.7344">ler(valor2)</text><text fill="#000000" font-family="sans-serif" font-size="12" lengthAdjust="spacing" textLength="59" x="198.75" y="99.8672">ler(valor3)</text><rect fill="#FEFECE" filter="url(#f1w55pqm1hblh5)" height="34.1328" rx="12.5" ry="12.5" style="stroke:#A80036;stroke-width:1.5;" width="84" x="186.25" y="132.3984"/><text fill="#000000" font-family="sans-serif" font-size="12" lengthAdjust="spacing" textLength="64" x="196.25" y="154">valorMenor</text><polygon fill="#FEFECE" filter="url(#f1w55pqm1hblh5)" points="121.75,186.5313,334.75,186.5313,346.75,198.5313,334.75,210.5313,121.75,210.5313,109.75,198.5313,121.75,186.5313" style="stroke:#A80036;stroke-width:1.5;"/><text fill="#000000" font-family="sans-serif" font-size="11" lengthAdjust="spacing" textLength="100" x="121.75" y="202.6885">(valor1 &lt;= valor2)</text><text fill="#000000" font-family="sans-serif" font-size="11" font-weight="bold" lengthAdjust="spacing" textLength="7" x="224.75" y="202.6885">E</text><text fill="#000000" font-family="sans-serif" font-size="11" lengthAdjust="spacing" textLength="100" x="234.75" y="202.6885">(valor1 &lt;= valor3)</text><text fill="#000000" font-family="sans-serif" font-size="11" lengthAdjust="spacing" textLength="19" x="90.75" y="196.2109">sim</text><text fill="#000000" font-family="sans-serif" font-size="11" lengthAdjust="spacing" textLength="20" x="346.75" y="196.2109">n達o</text><rect fill="#FEFECE" filter="url(#f1w55pqm1hblh5)" height="34.1328" rx="12.5" ry="12.5" style="stroke:#A80036;stroke-width:1.5;" width="138" x="11" y="220.5313"/><text fill="#000000" font-family="sans-serif" font-size="12" lengthAdjust="spacing" textLength="118" x="21" y="242.1328">valorMenor = valor1</text><polygon fill="#FEFECE" filter="url(#f1w55pqm1hblh5)" points="270,220.5313,483,220.5313,495,232.5313,483,244.5313,270,244.5313,258,232.5313,270,220.5313" style="stroke:#A80036;stroke-width:1.5;"/><text fill="#000000" font-family="sans-serif" font-size="11" lengthAdjust="spacing" textLength="100" x="270" y="236.6885">(valor2 &lt;= valor1)</text><text fill="#000000" font-family="sans-serif" font-size="11" font-weight="bold" lengthAdjust="spacing" textLength="7" x="373" y="236.6885">E</text><text fill="#000000" font-family="sans-serif" font-size="11" lengthAdjust="spacing" textLength="100" x="383" y="236.6885">(valor2 &lt;= valor3)</text><text fill="#000000" font-family="sans-serif" font-size="11" lengthAdjust="spacing" textLength="19" x="239" y="230.2109">sim</text><text fill="#000000" font-family="sans-serif" font-size="11" lengthAdjust="spacing" textLength="20" x="495" y="230.2109">n達o</text><rect fill="#FEFECE" filter="url(#f1w55pqm1hblh5)" height="34.1328" rx="12.5" ry="12.5" style="stroke:#A80036;stroke-width:1.5;" width="138" x="179" y="254.5313"/><text fill="#000000" font-family="sans-serif" font-size="12" lengthAdjust="spacing" textLength="118" x="189" y="276.1328">valorMenor = valor2</text><rect fill="#FEFECE" filter="url(#f1w55pqm1hblh5)" height="34.1328" rx="12.5" ry="12.5" style="stroke:#A80036;stroke-width:1.5;" width="138" x="436" y="254.5313"/><text fill="#000000" font-family="sans-serif" font-size="12" lengthAdjust="spacing" textLength="118" x="446" y="276.1328">valorMenor = valor3</text><polygon fill="#FEFECE" filter="url(#f1w55pqm1hblh5)" points="376.5,294.6641,388.5,306.6641,376.5,318.6641,364.5,306.6641,376.5,294.6641" style="stroke:#A80036;stroke-width:1.5;"/><polygon fill="#FEFECE" filter="url(#f1w55pqm1hblh5)" points="228.25,324.6641,240.25,336.6641,228.25,348.6641,216.25,336.6641,228.25,324.6641" style="stroke:#A80036;stroke-width:1.5;"/><ellipse cx="228.25" cy="379.6641" fill="#FFFFFF" filter="url(#f1w55pqm1hblh5)" rx="11" ry="11" style="stroke:#000000;stroke-width:1.0;"/><ellipse cx="228.25" cy="379.6641" fill="#000000" rx="6" ry="6" style="stroke:#7F7F7F;stroke-width:1.0;"/><rect fill="#FEFECE" filter="url(#f1w55pqm1hblh5)" height="34.1328" rx="12.5" ry="12.5" style="stroke:#A80036;stroke-width:1.5;" width="208" x="124.25" y="400.6641"/><text fill="#000000" font-family="sans-serif" font-size="12" lengthAdjust="spacing" textLength="188" x="134.25" y="422.2656">escrever("menor:" + valorMenor)</text><line style="stroke:#A80036;stroke-width:1.5;" x1="228.25" x2="228.25" y1="30" y2="50"/><polygon fill="#A80036" points="224.25,40,228.25,50,232.25,40,228.25,44" style="stroke:#A80036;stroke-width:1.0;"/><line style="stroke:#A80036;stroke-width:1.5;" x1="228.25" x2="228.25" y1="112.3984" y2="132.3984"/><polygon fill="#A80036" points="224.25,122.3984,228.25,132.3984,232.25,122.3984,228.25,126.3984" style="stroke:#A80036;stroke-width:1.0;"/><line style="stroke:#A80036;stroke-width:1.5;" x1="258" x2="248" y1="232.5313" y2="232.5313"/><line style="stroke:#A80036;stroke-width:1.5;" x1="248" x2="248" y1="232.5313" y2="254.5313"/><polygon fill="#A80036" points="244,244.5313,248,254.5313,252,244.5313,248,248.5313" style="stroke:#A80036;stroke-width:1.0;"/><line style="stroke:#A80036;stroke-width:1.5;" x1="495" x2="505" y1="232.5313" y2="232.5313"/><line style="stroke:#A80036;stroke-width:1.5;" x1="505" x2="505" y1="232.5313" y2="254.5313"/><polygon fill="#A80036" points="501,244.5313,505,254.5313,509,244.5313,505,248.5313" style="stroke:#A80036;stroke-width:1.0;"/><line style="stroke:#A80036;stroke-width:1.5;" x1="248" x2="248" y1="288.6641" y2="306.6641"/><line style="stroke:#A80036;stroke-width:1.5;" x1="248" x2="364.5" y1="306.6641" y2="306.6641"/><polygon fill="#A80036" points="354.5,302.6641,364.5,306.6641,354.5,310.6641,358.5,306.6641" style="stroke:#A80036;stroke-width:1.0;"/><line style="stroke:#A80036;stroke-width:1.5;" x1="505" x2="505" y1="288.6641" y2="306.6641"/><line style="stroke:#A80036;stroke-width:1.5;" x1="505" x2="388.5" y1="306.6641" y2="306.6641"/><polygon fill="#A80036" points="398.5,302.6641,388.5,306.6641,398.5,310.6641,394.5,306.6641" style="stroke:#A80036;stroke-width:1.0;"/><line style="stroke:#A80036;stroke-width:1.5;" x1="109.75" x2="80" y1="198.5313" y2="198.5313"/><line style="stroke:#A80036;stroke-width:1.5;" x1="80" x2="80" y1="198.5313" y2="220.5313"/><polygon fill="#A80036" points="76,210.5313,80,220.5313,84,210.5313,80,214.5313" style="stroke:#A80036;stroke-width:1.0;"/><line style="stroke:#A80036;stroke-width:1.5;" x1="346.75" x2="376.5" y1="198.5313" y2="198.5313"/><line style="stroke:#A80036;stroke-width:1.5;" x1="376.5" x2="376.5" y1="198.5313" y2="220.5313"/><polygon fill="#A80036" points="372.5,210.5313,376.5,220.5313,380.5,210.5313,376.5,214.5313" style="stroke:#A80036;stroke-width:1.0;"/><line style="stroke:#A80036;stroke-width:1.5;" x1="80" x2="80" y1="254.6641" y2="336.6641"/><line style="stroke:#A80036;stroke-width:1.5;" x1="80" x2="216.25" y1="336.6641" y2="336.6641"/><polygon fill="#A80036" points="206.25,332.6641,216.25,336.6641,206.25,340.6641,210.25,336.6641" style="stroke:#A80036;stroke-width:1.0;"/><line style="stroke:#A80036;stroke-width:1.5;" x1="376.5" x2="376.5" y1="318.6641" y2="336.6641"/><line style="stroke:#A80036;stroke-width:1.5;" x1="376.5" x2="240.25" y1="336.6641" y2="336.6641"/><polygon fill="#A80036" points="250.25,332.6641,240.25,336.6641,250.25,340.6641,246.25,336.6641" style="stroke:#A80036;stroke-width:1.0;"/><line style="stroke:#A80036;stroke-width:1.5;" x1="228.25" x2="228.25" y1="166.5313" y2="186.5313"/><polygon fill="#A80036" points="224.25,176.5313,228.25,186.5313,232.25,176.5313,228.25,180.5313" style="stroke:#A80036;stroke-width:1.0;"/><line style="stroke:#A80036;stroke-width:1.5;" x1="228.25" x2="228.25" y1="348.6641" y2="368.6641"/><polygon fill="#A80036" points="224.25,358.6641,228.25,368.6641,232.25,358.6641,228.25,362.6641" style="stroke:#A80036;stroke-width:1.0;"/><!--MD5=[bb360c9796d8cf1ec788d0549de67f0a]
@startuml ExemploMenorTresValores
	start
		 :ler(valor1)
		 ler(valor2)
		 ler(valor3);
		 :valorMenor;
		if ((valor1 <= valor2) **E** (valor1 <= valor3)) then (sim)
 			:valorMenor = valor1;
 		else (n達o)
			if ((valor2 <= valor1) **E** (valor2 <= valor3)) then (sim)
 				:valorMenor = valor2;
 			else (n達o)
 				:valorMenor = valor3;
 			endif
 		endif
	 stop
	:escrever("menor:" + valorMenor);
@enduml

PlantUML version 1.2021.14(Fri Nov 12 13:46:50 BRT 2021)
(GPL source distribution)
Java Runtime: OpenJDK Runtime Environment
JVM: OpenJDK 64-Bit Server VM
Default Encoding: UTF-8
Language: en
Country: BR
--></g></svg>